<?xml version="1.0" encoding="utf-8" standalone="no"?>
<!DOCTYPE svg PUBLIC "-//W3C//DTD SVG 1.1//EN"
  "http://www.w3.org/Graphics/SVG/1.1/DTD/svg11.dtd">
<!-- Created with matplotlib (http://matplotlib.org/) -->
<svg height="569pt" version="1.1" viewBox="0 0 1792 569" width="1792pt" xmlns="http://www.w3.org/2000/svg" xmlns:xlink="http://www.w3.org/1999/xlink">
 <defs>
  <style type="text/css">
*{stroke-linecap:butt;stroke-linejoin:round;}
  </style>
 </defs>
 <g id="figure_1">
  <g id="patch_1">
   <path d="M 0 569.5125 
L 1792.83125 569.5125 
L 1792.83125 0 
L 0 0 
z
" style="fill:#ffffff;"/>
  </g>
  <g id="axes_1">
   <g id="patch_2">
    <path d="M 75.73125 512.6 
L 887.53125 512.6 
L 887.53125 10.7 
L 75.73125 10.7 
z
" style="fill:#e5e5e5;"/>
   </g>
   <g id="matplotlib.axis_1">
    <g id="xtick_1">
     <g id="line2d_1">
      <path clip-path="url(#pbd75e156ca)" d="M 75.73125 512.6 
L 75.73125 10.7 
" style="fill:none;stroke:#ffffff;stroke-linecap:square;stroke-width:0.8;"/>
     </g>
     <g id="line2d_2">
      <defs>
       <path d="M 0 0 
L 0 3.5 
" id="m1d450754ea" style="stroke:#555555;stroke-width:0.8;"/>
      </defs>
      <g>
       <use style="fill:#555555;stroke:#555555;stroke-width:0.8;" x="75.73125" xlink:href="#m1d450754ea" y="512.6"/>
      </g>
     </g>
     <g id="text_1">
      <!-- 0 -->
      <defs>
       <path d="M 31.78125 66.40625 
Q 24.171875 66.40625 20.328125 58.90625 
Q 16.5 51.421875 16.5 36.375 
Q 16.5 21.390625 20.328125 13.890625 
Q 24.171875 6.390625 31.78125 6.390625 
Q 39.453125 6.390625 43.28125 13.890625 
Q 47.125 21.390625 47.125 36.375 
Q 47.125 51.421875 43.28125 58.90625 
Q 39.453125 66.40625 31.78125 66.40625 
z
M 31.78125 74.21875 
Q 44.046875 74.21875 50.515625 64.515625 
Q 56.984375 54.828125 56.984375 36.375 
Q 56.984375 17.96875 50.515625 8.265625 
Q 44.046875 -1.421875 31.78125 -1.421875 
Q 19.53125 -1.421875 13.0625 8.265625 
Q 6.59375 17.96875 6.59375 36.375 
Q 6.59375 54.828125 13.0625 64.515625 
Q 19.53125 74.21875 31.78125 74.21875 
z
" id="DejaVuSans-30"/>
      </defs>
      <g style="fill:#555555;" transform="translate(69.36875 534.796875)scale(0.2 -0.2)">
       <use xlink:href="#DejaVuSans-30"/>
      </g>
     </g>
    </g>
    <g id="xtick_2">
     <g id="line2d_3">
      <path clip-path="url(#pbd75e156ca)" d="M 126.46875 512.6 
L 126.46875 10.7 
" style="fill:none;stroke:#ffffff;stroke-linecap:square;stroke-width:0.8;"/>
     </g>
     <g id="line2d_4">
      <g>
       <use style="fill:#555555;stroke:#555555;stroke-width:0.8;" x="126.46875" xlink:href="#m1d450754ea" y="512.6"/>
      </g>
     </g>
     <g id="text_2">
      <!-- 2 -->
      <defs>
       <path d="M 19.1875 8.296875 
L 53.609375 8.296875 
L 53.609375 0 
L 7.328125 0 
L 7.328125 8.296875 
Q 12.9375 14.109375 22.625 23.890625 
Q 32.328125 33.6875 34.8125 36.53125 
Q 39.546875 41.84375 41.421875 45.53125 
Q 43.3125 49.21875 43.3125 52.78125 
Q 43.3125 58.59375 39.234375 62.25 
Q 35.15625 65.921875 28.609375 65.921875 
Q 23.96875 65.921875 18.8125 64.3125 
Q 13.671875 62.703125 7.8125 59.421875 
L 7.8125 69.390625 
Q 13.765625 71.78125 18.9375 73 
Q 24.125 74.21875 28.421875 74.21875 
Q 39.75 74.21875 46.484375 68.546875 
Q 53.21875 62.890625 53.21875 53.421875 
Q 53.21875 48.921875 51.53125 44.890625 
Q 49.859375 40.875 45.40625 35.40625 
Q 44.1875 33.984375 37.640625 27.21875 
Q 31.109375 20.453125 19.1875 8.296875 
z
" id="DejaVuSans-32"/>
      </defs>
      <g style="fill:#555555;" transform="translate(120.10625 534.796875)scale(0.2 -0.2)">
       <use xlink:href="#DejaVuSans-32"/>
      </g>
     </g>
    </g>
    <g id="xtick_3">
     <g id="line2d_5">
      <path clip-path="url(#pbd75e156ca)" d="M 177.20625 512.6 
L 177.20625 10.7 
" style="fill:none;stroke:#ffffff;stroke-linecap:square;stroke-width:0.8;"/>
     </g>
     <g id="line2d_6">
      <g>
       <use style="fill:#555555;stroke:#555555;stroke-width:0.8;" x="177.20625" xlink:href="#m1d450754ea" y="512.6"/>
      </g>
     </g>
     <g id="text_3">
      <!-- 4 -->
      <defs>
       <path d="M 37.796875 64.3125 
L 12.890625 25.390625 
L 37.796875 25.390625 
z
M 35.203125 72.90625 
L 47.609375 72.90625 
L 47.609375 25.390625 
L 58.015625 25.390625 
L 58.015625 17.1875 
L 47.609375 17.1875 
L 47.609375 0 
L 37.796875 0 
L 37.796875 17.1875 
L 4.890625 17.1875 
L 4.890625 26.703125 
z
" id="DejaVuSans-34"/>
      </defs>
      <g style="fill:#555555;" transform="translate(170.84375 534.796875)scale(0.2 -0.2)">
       <use xlink:href="#DejaVuSans-34"/>
      </g>
     </g>
    </g>
    <g id="xtick_4">
     <g id="line2d_7">
      <path clip-path="url(#pbd75e156ca)" d="M 227.94375 512.6 
L 227.94375 10.7 
" style="fill:none;stroke:#ffffff;stroke-linecap:square;stroke-width:0.8;"/>
     </g>
     <g id="line2d_8">
      <g>
       <use style="fill:#555555;stroke:#555555;stroke-width:0.8;" x="227.94375" xlink:href="#m1d450754ea" y="512.6"/>
      </g>
     </g>
     <g id="text_4">
      <!-- 6 -->
      <defs>
       <path d="M 33.015625 40.375 
Q 26.375 40.375 22.484375 35.828125 
Q 18.609375 31.296875 18.609375 23.390625 
Q 18.609375 15.53125 22.484375 10.953125 
Q 26.375 6.390625 33.015625 6.390625 
Q 39.65625 6.390625 43.53125 10.953125 
Q 47.40625 15.53125 47.40625 23.390625 
Q 47.40625 31.296875 43.53125 35.828125 
Q 39.65625 40.375 33.015625 40.375 
z
M 52.59375 71.296875 
L 52.59375 62.3125 
Q 48.875 64.0625 45.09375 64.984375 
Q 41.3125 65.921875 37.59375 65.921875 
Q 27.828125 65.921875 22.671875 59.328125 
Q 17.53125 52.734375 16.796875 39.40625 
Q 19.671875 43.65625 24.015625 45.921875 
Q 28.375 48.1875 33.59375 48.1875 
Q 44.578125 48.1875 50.953125 41.515625 
Q 57.328125 34.859375 57.328125 23.390625 
Q 57.328125 12.15625 50.6875 5.359375 
Q 44.046875 -1.421875 33.015625 -1.421875 
Q 20.359375 -1.421875 13.671875 8.265625 
Q 6.984375 17.96875 6.984375 36.375 
Q 6.984375 53.65625 15.1875 63.9375 
Q 23.390625 74.21875 37.203125 74.21875 
Q 40.921875 74.21875 44.703125 73.484375 
Q 48.484375 72.75 52.59375 71.296875 
z
" id="DejaVuSans-36"/>
      </defs>
      <g style="fill:#555555;" transform="translate(221.58125 534.796875)scale(0.2 -0.2)">
       <use xlink:href="#DejaVuSans-36"/>
      </g>
     </g>
    </g>
    <g id="xtick_5">
     <g id="line2d_9">
      <path clip-path="url(#pbd75e156ca)" d="M 278.68125 512.6 
L 278.68125 10.7 
" style="fill:none;stroke:#ffffff;stroke-linecap:square;stroke-width:0.8;"/>
     </g>
     <g id="line2d_10">
      <g>
       <use style="fill:#555555;stroke:#555555;stroke-width:0.8;" x="278.68125" xlink:href="#m1d450754ea" y="512.6"/>
      </g>
     </g>
     <g id="text_5">
      <!-- 8 -->
      <defs>
       <path d="M 31.78125 34.625 
Q 24.75 34.625 20.71875 30.859375 
Q 16.703125 27.09375 16.703125 20.515625 
Q 16.703125 13.921875 20.71875 10.15625 
Q 24.75 6.390625 31.78125 6.390625 
Q 38.8125 6.390625 42.859375 10.171875 
Q 46.921875 13.96875 46.921875 20.515625 
Q 46.921875 27.09375 42.890625 30.859375 
Q 38.875 34.625 31.78125 34.625 
z
M 21.921875 38.8125 
Q 15.578125 40.375 12.03125 44.71875 
Q 8.5 49.078125 8.5 55.328125 
Q 8.5 64.0625 14.71875 69.140625 
Q 20.953125 74.21875 31.78125 74.21875 
Q 42.671875 74.21875 48.875 69.140625 
Q 55.078125 64.0625 55.078125 55.328125 
Q 55.078125 49.078125 51.53125 44.71875 
Q 48 40.375 41.703125 38.8125 
Q 48.828125 37.15625 52.796875 32.3125 
Q 56.78125 27.484375 56.78125 20.515625 
Q 56.78125 9.90625 50.3125 4.234375 
Q 43.84375 -1.421875 31.78125 -1.421875 
Q 19.734375 -1.421875 13.25 4.234375 
Q 6.78125 9.90625 6.78125 20.515625 
Q 6.78125 27.484375 10.78125 32.3125 
Q 14.796875 37.15625 21.921875 38.8125 
z
M 18.3125 54.390625 
Q 18.3125 48.734375 21.84375 45.5625 
Q 25.390625 42.390625 31.78125 42.390625 
Q 38.140625 42.390625 41.71875 45.5625 
Q 45.3125 48.734375 45.3125 54.390625 
Q 45.3125 60.0625 41.71875 63.234375 
Q 38.140625 66.40625 31.78125 66.40625 
Q 25.390625 66.40625 21.84375 63.234375 
Q 18.3125 60.0625 18.3125 54.390625 
z
" id="DejaVuSans-38"/>
      </defs>
      <g style="fill:#555555;" transform="translate(272.31875 534.796875)scale(0.2 -0.2)">
       <use xlink:href="#DejaVuSans-38"/>
      </g>
     </g>
    </g>
    <g id="xtick_6">
     <g id="line2d_11">
      <path clip-path="url(#pbd75e156ca)" d="M 329.41875 512.6 
L 329.41875 10.7 
" style="fill:none;stroke:#ffffff;stroke-linecap:square;stroke-width:0.8;"/>
     </g>
     <g id="line2d_12">
      <g>
       <use style="fill:#555555;stroke:#555555;stroke-width:0.8;" x="329.41875" xlink:href="#m1d450754ea" y="512.6"/>
      </g>
     </g>
     <g id="text_6">
      <!-- 10 -->
      <defs>
       <path d="M 12.40625 8.296875 
L 28.515625 8.296875 
L 28.515625 63.921875 
L 10.984375 60.40625 
L 10.984375 69.390625 
L 28.421875 72.90625 
L 38.28125 72.90625 
L 38.28125 8.296875 
L 54.390625 8.296875 
L 54.390625 0 
L 12.40625 0 
z
" id="DejaVuSans-31"/>
      </defs>
      <g style="fill:#555555;" transform="translate(316.69375 534.796875)scale(0.2 -0.2)">
       <use xlink:href="#DejaVuSans-31"/>
       <use x="63.623047" xlink:href="#DejaVuSans-30"/>
      </g>
     </g>
    </g>
    <g id="xtick_7">
     <g id="line2d_13">
      <path clip-path="url(#pbd75e156ca)" d="M 380.15625 512.6 
L 380.15625 10.7 
" style="fill:none;stroke:#ffffff;stroke-linecap:square;stroke-width:0.8;"/>
     </g>
     <g id="line2d_14">
      <g>
       <use style="fill:#555555;stroke:#555555;stroke-width:0.8;" x="380.15625" xlink:href="#m1d450754ea" y="512.6"/>
      </g>
     </g>
     <g id="text_7">
      <!-- 12 -->
      <g style="fill:#555555;" transform="translate(367.43125 534.796875)scale(0.2 -0.2)">
       <use xlink:href="#DejaVuSans-31"/>
       <use x="63.623047" xlink:href="#DejaVuSans-32"/>
      </g>
     </g>
    </g>
    <g id="xtick_8">
     <g id="line2d_15">
      <path clip-path="url(#pbd75e156ca)" d="M 430.89375 512.6 
L 430.89375 10.7 
" style="fill:none;stroke:#ffffff;stroke-linecap:square;stroke-width:0.8;"/>
     </g>
     <g id="line2d_16">
      <g>
       <use style="fill:#555555;stroke:#555555;stroke-width:0.8;" x="430.89375" xlink:href="#m1d450754ea" y="512.6"/>
      </g>
     </g>
     <g id="text_8">
      <!-- 14 -->
      <g style="fill:#555555;" transform="translate(418.16875 534.796875)scale(0.2 -0.2)">
       <use xlink:href="#DejaVuSans-31"/>
       <use x="63.623047" xlink:href="#DejaVuSans-34"/>
      </g>
     </g>
    </g>
    <g id="xtick_9">
     <g id="line2d_17">
      <path clip-path="url(#pbd75e156ca)" d="M 481.63125 512.6 
L 481.63125 10.7 
" style="fill:none;stroke:#ffffff;stroke-linecap:square;stroke-width:0.8;"/>
     </g>
     <g id="line2d_18">
      <g>
       <use style="fill:#555555;stroke:#555555;stroke-width:0.8;" x="481.63125" xlink:href="#m1d450754ea" y="512.6"/>
      </g>
     </g>
     <g id="text_9">
      <!-- 16 -->
      <g style="fill:#555555;" transform="translate(468.90625 534.796875)scale(0.2 -0.2)">
       <use xlink:href="#DejaVuSans-31"/>
       <use x="63.623047" xlink:href="#DejaVuSans-36"/>
      </g>
     </g>
    </g>
    <g id="xtick_10">
     <g id="line2d_19">
      <path clip-path="url(#pbd75e156ca)" d="M 532.36875 512.6 
L 532.36875 10.7 
" style="fill:none;stroke:#ffffff;stroke-linecap:square;stroke-width:0.8;"/>
     </g>
     <g id="line2d_20">
      <g>
       <use style="fill:#555555;stroke:#555555;stroke-width:0.8;" x="532.36875" xlink:href="#m1d450754ea" y="512.6"/>
      </g>
     </g>
     <g id="text_10">
      <!-- 18 -->
      <g style="fill:#555555;" transform="translate(519.64375 534.796875)scale(0.2 -0.2)">
       <use xlink:href="#DejaVuSans-31"/>
       <use x="63.623047" xlink:href="#DejaVuSans-38"/>
      </g>
     </g>
    </g>
    <g id="xtick_11">
     <g id="line2d_21">
      <path clip-path="url(#pbd75e156ca)" d="M 583.10625 512.6 
L 583.10625 10.7 
" style="fill:none;stroke:#ffffff;stroke-linecap:square;stroke-width:0.8;"/>
     </g>
     <g id="line2d_22">
      <g>
       <use style="fill:#555555;stroke:#555555;stroke-width:0.8;" x="583.10625" xlink:href="#m1d450754ea" y="512.6"/>
      </g>
     </g>
     <g id="text_11">
      <!-- 20 -->
      <g style="fill:#555555;" transform="translate(570.38125 534.796875)scale(0.2 -0.2)">
       <use xlink:href="#DejaVuSans-32"/>
       <use x="63.623047" xlink:href="#DejaVuSans-30"/>
      </g>
     </g>
    </g>
    <g id="xtick_12">
     <g id="line2d_23">
      <path clip-path="url(#pbd75e156ca)" d="M 633.84375 512.6 
L 633.84375 10.7 
" style="fill:none;stroke:#ffffff;stroke-linecap:square;stroke-width:0.8;"/>
     </g>
     <g id="line2d_24">
      <g>
       <use style="fill:#555555;stroke:#555555;stroke-width:0.8;" x="633.84375" xlink:href="#m1d450754ea" y="512.6"/>
      </g>
     </g>
     <g id="text_12">
      <!-- 22 -->
      <g style="fill:#555555;" transform="translate(621.11875 534.796875)scale(0.2 -0.2)">
       <use xlink:href="#DejaVuSans-32"/>
       <use x="63.623047" xlink:href="#DejaVuSans-32"/>
      </g>
     </g>
    </g>
    <g id="xtick_13">
     <g id="line2d_25">
      <path clip-path="url(#pbd75e156ca)" d="M 684.58125 512.6 
L 684.58125 10.7 
" style="fill:none;stroke:#ffffff;stroke-linecap:square;stroke-width:0.8;"/>
     </g>
     <g id="line2d_26">
      <g>
       <use style="fill:#555555;stroke:#555555;stroke-width:0.8;" x="684.58125" xlink:href="#m1d450754ea" y="512.6"/>
      </g>
     </g>
     <g id="text_13">
      <!-- 24 -->
      <g style="fill:#555555;" transform="translate(671.85625 534.796875)scale(0.2 -0.2)">
       <use xlink:href="#DejaVuSans-32"/>
       <use x="63.623047" xlink:href="#DejaVuSans-34"/>
      </g>
     </g>
    </g>
    <g id="xtick_14">
     <g id="line2d_27">
      <path clip-path="url(#pbd75e156ca)" d="M 735.31875 512.6 
L 735.31875 10.7 
" style="fill:none;stroke:#ffffff;stroke-linecap:square;stroke-width:0.8;"/>
     </g>
     <g id="line2d_28">
      <g>
       <use style="fill:#555555;stroke:#555555;stroke-width:0.8;" x="735.31875" xlink:href="#m1d450754ea" y="512.6"/>
      </g>
     </g>
     <g id="text_14">
      <!-- 26 -->
      <g style="fill:#555555;" transform="translate(722.59375 534.796875)scale(0.2 -0.2)">
       <use xlink:href="#DejaVuSans-32"/>
       <use x="63.623047" xlink:href="#DejaVuSans-36"/>
      </g>
     </g>
    </g>
    <g id="xtick_15">
     <g id="line2d_29">
      <path clip-path="url(#pbd75e156ca)" d="M 786.05625 512.6 
L 786.05625 10.7 
" style="fill:none;stroke:#ffffff;stroke-linecap:square;stroke-width:0.8;"/>
     </g>
     <g id="line2d_30">
      <g>
       <use style="fill:#555555;stroke:#555555;stroke-width:0.8;" x="786.05625" xlink:href="#m1d450754ea" y="512.6"/>
      </g>
     </g>
     <g id="text_15">
      <!-- 28 -->
      <g style="fill:#555555;" transform="translate(773.33125 534.796875)scale(0.2 -0.2)">
       <use xlink:href="#DejaVuSans-32"/>
       <use x="63.623047" xlink:href="#DejaVuSans-38"/>
      </g>
     </g>
    </g>
    <g id="xtick_16">
     <g id="line2d_31">
      <path clip-path="url(#pbd75e156ca)" d="M 836.79375 512.6 
L 836.79375 10.7 
" style="fill:none;stroke:#ffffff;stroke-linecap:square;stroke-width:0.8;"/>
     </g>
     <g id="line2d_32">
      <g>
       <use style="fill:#555555;stroke:#555555;stroke-width:0.8;" x="836.79375" xlink:href="#m1d450754ea" y="512.6"/>
      </g>
     </g>
     <g id="text_16">
      <!-- 30 -->
      <defs>
       <path d="M 40.578125 39.3125 
Q 47.65625 37.796875 51.625 33 
Q 55.609375 28.21875 55.609375 21.1875 
Q 55.609375 10.40625 48.1875 4.484375 
Q 40.765625 -1.421875 27.09375 -1.421875 
Q 22.515625 -1.421875 17.65625 -0.515625 
Q 12.796875 0.390625 7.625 2.203125 
L 7.625 11.71875 
Q 11.71875 9.328125 16.59375 8.109375 
Q 21.484375 6.890625 26.8125 6.890625 
Q 36.078125 6.890625 40.9375 10.546875 
Q 45.796875 14.203125 45.796875 21.1875 
Q 45.796875 27.640625 41.28125 31.265625 
Q 36.765625 34.90625 28.71875 34.90625 
L 20.21875 34.90625 
L 20.21875 43.015625 
L 29.109375 43.015625 
Q 36.375 43.015625 40.234375 45.921875 
Q 44.09375 48.828125 44.09375 54.296875 
Q 44.09375 59.90625 40.109375 62.90625 
Q 36.140625 65.921875 28.71875 65.921875 
Q 24.65625 65.921875 20.015625 65.03125 
Q 15.375 64.15625 9.8125 62.3125 
L 9.8125 71.09375 
Q 15.4375 72.65625 20.34375 73.4375 
Q 25.25 74.21875 29.59375 74.21875 
Q 40.828125 74.21875 47.359375 69.109375 
Q 53.90625 64.015625 53.90625 55.328125 
Q 53.90625 49.265625 50.4375 45.09375 
Q 46.96875 40.921875 40.578125 39.3125 
z
" id="DejaVuSans-33"/>
      </defs>
      <g style="fill:#555555;" transform="translate(824.06875 534.796875)scale(0.2 -0.2)">
       <use xlink:href="#DejaVuSans-33"/>
       <use x="63.623047" xlink:href="#DejaVuSans-30"/>
      </g>
     </g>
    </g>
    <g id="text_17">
     <!-- Iteration -->
     <defs>
      <path d="M 9.8125 72.90625 
L 19.671875 72.90625 
L 19.671875 0 
L 9.8125 0 
z
" id="DejaVuSans-49"/>
      <path d="M 18.3125 70.21875 
L 18.3125 54.6875 
L 36.8125 54.6875 
L 36.8125 47.703125 
L 18.3125 47.703125 
L 18.3125 18.015625 
Q 18.3125 11.328125 20.140625 9.421875 
Q 21.96875 7.515625 27.59375 7.515625 
L 36.8125 7.515625 
L 36.8125 0 
L 27.59375 0 
Q 17.1875 0 13.234375 3.875 
Q 9.28125 7.765625 9.28125 18.015625 
L 9.28125 47.703125 
L 2.6875 47.703125 
L 2.6875 54.6875 
L 9.28125 54.6875 
L 9.28125 70.21875 
z
" id="DejaVuSans-74"/>
      <path d="M 56.203125 29.59375 
L 56.203125 25.203125 
L 14.890625 25.203125 
Q 15.484375 15.921875 20.484375 11.0625 
Q 25.484375 6.203125 34.421875 6.203125 
Q 39.59375 6.203125 44.453125 7.46875 
Q 49.3125 8.734375 54.109375 11.28125 
L 54.109375 2.78125 
Q 49.265625 0.734375 44.1875 -0.34375 
Q 39.109375 -1.421875 33.890625 -1.421875 
Q 20.796875 -1.421875 13.15625 6.1875 
Q 5.515625 13.8125 5.515625 26.8125 
Q 5.515625 40.234375 12.765625 48.109375 
Q 20.015625 56 32.328125 56 
Q 43.359375 56 49.78125 48.890625 
Q 56.203125 41.796875 56.203125 29.59375 
z
M 47.21875 32.234375 
Q 47.125 39.59375 43.09375 43.984375 
Q 39.0625 48.390625 32.421875 48.390625 
Q 24.90625 48.390625 20.390625 44.140625 
Q 15.875 39.890625 15.1875 32.171875 
z
" id="DejaVuSans-65"/>
      <path d="M 41.109375 46.296875 
Q 39.59375 47.171875 37.8125 47.578125 
Q 36.03125 48 33.890625 48 
Q 26.265625 48 22.1875 43.046875 
Q 18.109375 38.09375 18.109375 28.8125 
L 18.109375 0 
L 9.078125 0 
L 9.078125 54.6875 
L 18.109375 54.6875 
L 18.109375 46.1875 
Q 20.953125 51.171875 25.484375 53.578125 
Q 30.03125 56 36.53125 56 
Q 37.453125 56 38.578125 55.875 
Q 39.703125 55.765625 41.0625 55.515625 
z
" id="DejaVuSans-72"/>
      <path d="M 34.28125 27.484375 
Q 23.390625 27.484375 19.1875 25 
Q 14.984375 22.515625 14.984375 16.5 
Q 14.984375 11.71875 18.140625 8.90625 
Q 21.296875 6.109375 26.703125 6.109375 
Q 34.1875 6.109375 38.703125 11.40625 
Q 43.21875 16.703125 43.21875 25.484375 
L 43.21875 27.484375 
z
M 52.203125 31.203125 
L 52.203125 0 
L 43.21875 0 
L 43.21875 8.296875 
Q 40.140625 3.328125 35.546875 0.953125 
Q 30.953125 -1.421875 24.3125 -1.421875 
Q 15.921875 -1.421875 10.953125 3.296875 
Q 6 8.015625 6 15.921875 
Q 6 25.140625 12.171875 29.828125 
Q 18.359375 34.515625 30.609375 34.515625 
L 43.21875 34.515625 
L 43.21875 35.40625 
Q 43.21875 41.609375 39.140625 45 
Q 35.0625 48.390625 27.6875 48.390625 
Q 23 48.390625 18.546875 47.265625 
Q 14.109375 46.140625 10.015625 43.890625 
L 10.015625 52.203125 
Q 14.9375 54.109375 19.578125 55.046875 
Q 24.21875 56 28.609375 56 
Q 40.484375 56 46.34375 49.84375 
Q 52.203125 43.703125 52.203125 31.203125 
z
" id="DejaVuSans-61"/>
      <path d="M 9.421875 54.6875 
L 18.40625 54.6875 
L 18.40625 0 
L 9.421875 0 
z
M 9.421875 75.984375 
L 18.40625 75.984375 
L 18.40625 64.59375 
L 9.421875 64.59375 
z
" id="DejaVuSans-69"/>
      <path d="M 30.609375 48.390625 
Q 23.390625 48.390625 19.1875 42.75 
Q 14.984375 37.109375 14.984375 27.296875 
Q 14.984375 17.484375 19.15625 11.84375 
Q 23.34375 6.203125 30.609375 6.203125 
Q 37.796875 6.203125 41.984375 11.859375 
Q 46.1875 17.53125 46.1875 27.296875 
Q 46.1875 37.015625 41.984375 42.703125 
Q 37.796875 48.390625 30.609375 48.390625 
z
M 30.609375 56 
Q 42.328125 56 49.015625 48.375 
Q 55.71875 40.765625 55.71875 27.296875 
Q 55.71875 13.875 49.015625 6.21875 
Q 42.328125 -1.421875 30.609375 -1.421875 
Q 18.84375 -1.421875 12.171875 6.21875 
Q 5.515625 13.875 5.515625 27.296875 
Q 5.515625 40.765625 12.171875 48.375 
Q 18.84375 56 30.609375 56 
z
" id="DejaVuSans-6f"/>
      <path d="M 54.890625 33.015625 
L 54.890625 0 
L 45.90625 0 
L 45.90625 32.71875 
Q 45.90625 40.484375 42.875 44.328125 
Q 39.84375 48.1875 33.796875 48.1875 
Q 26.515625 48.1875 22.3125 43.546875 
Q 18.109375 38.921875 18.109375 30.90625 
L 18.109375 0 
L 9.078125 0 
L 9.078125 54.6875 
L 18.109375 54.6875 
L 18.109375 46.1875 
Q 21.34375 51.125 25.703125 53.5625 
Q 30.078125 56 35.796875 56 
Q 45.21875 56 50.046875 50.171875 
Q 54.890625 44.34375 54.890625 33.015625 
z
" id="DejaVuSans-6e"/>
     </defs>
     <g style="fill:#555555;" transform="translate(439.214063 558.153125)scale(0.2 -0.2)">
      <use xlink:href="#DejaVuSans-49"/>
      <use x="29.492188" xlink:href="#DejaVuSans-74"/>
      <use x="68.701172" xlink:href="#DejaVuSans-65"/>
      <use x="130.224609" xlink:href="#DejaVuSans-72"/>
      <use x="171.337891" xlink:href="#DejaVuSans-61"/>
      <use x="232.617188" xlink:href="#DejaVuSans-74"/>
      <use x="271.826172" xlink:href="#DejaVuSans-69"/>
      <use x="299.609375" xlink:href="#DejaVuSans-6f"/>
      <use x="360.791016" xlink:href="#DejaVuSans-6e"/>
     </g>
    </g>
   </g>
   <g id="matplotlib.axis_2">
    <g id="ytick_1">
     <g id="line2d_33">
      <path clip-path="url(#pbd75e156ca)" d="M 75.73125 486.849752 
L 887.53125 486.849752 
" style="fill:none;stroke:#ffffff;stroke-linecap:square;stroke-width:0.8;"/>
     </g>
     <g id="line2d_34">
      <defs>
       <path d="M 0 0 
L -3.5 0 
" id="ma630b28a01" style="stroke:#555555;stroke-width:0.8;"/>
      </defs>
      <g>
       <use style="fill:#555555;stroke:#555555;stroke-width:0.8;" x="75.73125" xlink:href="#ma630b28a01" y="486.849752"/>
      </g>
     </g>
     <g id="text_18">
      <!-- 0 -->
      <g style="fill:#555555;" transform="translate(56.00625 494.448189)scale(0.2 -0.2)">
       <use xlink:href="#DejaVuSans-30"/>
      </g>
     </g>
    </g>
    <g id="ytick_2">
     <g id="line2d_35">
      <path clip-path="url(#pbd75e156ca)" d="M 75.73125 395.490826 
L 887.53125 395.490826 
" style="fill:none;stroke:#ffffff;stroke-linecap:square;stroke-width:0.8;"/>
     </g>
     <g id="line2d_36">
      <g>
       <use style="fill:#555555;stroke:#555555;stroke-width:0.8;" x="75.73125" xlink:href="#ma630b28a01" y="395.490826"/>
      </g>
     </g>
     <g id="text_19">
      <!-- 100 -->
      <g style="fill:#555555;" transform="translate(30.55625 403.089264)scale(0.2 -0.2)">
       <use xlink:href="#DejaVuSans-31"/>
       <use x="63.623047" xlink:href="#DejaVuSans-30"/>
       <use x="127.246094" xlink:href="#DejaVuSans-30"/>
      </g>
     </g>
    </g>
    <g id="ytick_3">
     <g id="line2d_37">
      <path clip-path="url(#pbd75e156ca)" d="M 75.73125 304.1319 
L 887.53125 304.1319 
" style="fill:none;stroke:#ffffff;stroke-linecap:square;stroke-width:0.8;"/>
     </g>
     <g id="line2d_38">
      <g>
       <use style="fill:#555555;stroke:#555555;stroke-width:0.8;" x="75.73125" xlink:href="#ma630b28a01" y="304.1319"/>
      </g>
     </g>
     <g id="text_20">
      <!-- 200 -->
      <g style="fill:#555555;" transform="translate(30.55625 311.730338)scale(0.2 -0.2)">
       <use xlink:href="#DejaVuSans-32"/>
       <use x="63.623047" xlink:href="#DejaVuSans-30"/>
       <use x="127.246094" xlink:href="#DejaVuSans-30"/>
      </g>
     </g>
    </g>
    <g id="ytick_4">
     <g id="line2d_39">
      <path clip-path="url(#pbd75e156ca)" d="M 75.73125 212.772975 
L 887.53125 212.772975 
" style="fill:none;stroke:#ffffff;stroke-linecap:square;stroke-width:0.8;"/>
     </g>
     <g id="line2d_40">
      <g>
       <use style="fill:#555555;stroke:#555555;stroke-width:0.8;" x="75.73125" xlink:href="#ma630b28a01" y="212.772975"/>
      </g>
     </g>
     <g id="text_21">
      <!-- 300 -->
      <g style="fill:#555555;" transform="translate(30.55625 220.371412)scale(0.2 -0.2)">
       <use xlink:href="#DejaVuSans-33"/>
       <use x="63.623047" xlink:href="#DejaVuSans-30"/>
       <use x="127.246094" xlink:href="#DejaVuSans-30"/>
      </g>
     </g>
    </g>
    <g id="ytick_5">
     <g id="line2d_41">
      <path clip-path="url(#pbd75e156ca)" d="M 75.73125 121.414049 
L 887.53125 121.414049 
" style="fill:none;stroke:#ffffff;stroke-linecap:square;stroke-width:0.8;"/>
     </g>
     <g id="line2d_42">
      <g>
       <use style="fill:#555555;stroke:#555555;stroke-width:0.8;" x="75.73125" xlink:href="#ma630b28a01" y="121.414049"/>
      </g>
     </g>
     <g id="text_22">
      <!-- 400 -->
      <g style="fill:#555555;" transform="translate(30.55625 129.012487)scale(0.2 -0.2)">
       <use xlink:href="#DejaVuSans-34"/>
       <use x="63.623047" xlink:href="#DejaVuSans-30"/>
       <use x="127.246094" xlink:href="#DejaVuSans-30"/>
      </g>
     </g>
    </g>
    <g id="ytick_6">
     <g id="line2d_43">
      <path clip-path="url(#pbd75e156ca)" d="M 75.73125 30.055124 
L 887.53125 30.055124 
" style="fill:none;stroke:#ffffff;stroke-linecap:square;stroke-width:0.8;"/>
     </g>
     <g id="line2d_44">
      <g>
       <use style="fill:#555555;stroke:#555555;stroke-width:0.8;" x="75.73125" xlink:href="#ma630b28a01" y="30.055124"/>
      </g>
     </g>
     <g id="text_23">
      <!-- 500 -->
      <defs>
       <path d="M 10.796875 72.90625 
L 49.515625 72.90625 
L 49.515625 64.59375 
L 19.828125 64.59375 
L 19.828125 46.734375 
Q 21.96875 47.46875 24.109375 47.828125 
Q 26.265625 48.1875 28.421875 48.1875 
Q 40.625 48.1875 47.75 41.5 
Q 54.890625 34.8125 54.890625 23.390625 
Q 54.890625 11.625 47.5625 5.09375 
Q 40.234375 -1.421875 26.90625 -1.421875 
Q 22.3125 -1.421875 17.546875 -0.640625 
Q 12.796875 0.140625 7.71875 1.703125 
L 7.71875 11.625 
Q 12.109375 9.234375 16.796875 8.0625 
Q 21.484375 6.890625 26.703125 6.890625 
Q 35.15625 6.890625 40.078125 11.328125 
Q 45.015625 15.765625 45.015625 23.390625 
Q 45.015625 31 40.078125 35.4375 
Q 35.15625 39.890625 26.703125 39.890625 
Q 22.75 39.890625 18.8125 39.015625 
Q 14.890625 38.140625 10.796875 36.28125 
z
" id="DejaVuSans-35"/>
      </defs>
      <g style="fill:#555555;" transform="translate(30.55625 37.653561)scale(0.2 -0.2)">
       <use xlink:href="#DejaVuSans-35"/>
       <use x="63.623047" xlink:href="#DejaVuSans-30"/>
       <use x="127.246094" xlink:href="#DejaVuSans-30"/>
      </g>
     </g>
    </g>
    <g id="text_24">
     <!-- Number of traces aligned -->
     <defs>
      <path d="M 9.8125 72.90625 
L 23.09375 72.90625 
L 55.421875 11.921875 
L 55.421875 72.90625 
L 64.984375 72.90625 
L 64.984375 0 
L 51.703125 0 
L 19.390625 60.984375 
L 19.390625 0 
L 9.8125 0 
z
" id="DejaVuSans-4e"/>
      <path d="M 8.5 21.578125 
L 8.5 54.6875 
L 17.484375 54.6875 
L 17.484375 21.921875 
Q 17.484375 14.15625 20.5 10.265625 
Q 23.53125 6.390625 29.59375 6.390625 
Q 36.859375 6.390625 41.078125 11.03125 
Q 45.3125 15.671875 45.3125 23.6875 
L 45.3125 54.6875 
L 54.296875 54.6875 
L 54.296875 0 
L 45.3125 0 
L 45.3125 8.40625 
Q 42.046875 3.421875 37.71875 1 
Q 33.40625 -1.421875 27.6875 -1.421875 
Q 18.265625 -1.421875 13.375 4.4375 
Q 8.5 10.296875 8.5 21.578125 
z
M 31.109375 56 
z
" id="DejaVuSans-75"/>
      <path d="M 52 44.1875 
Q 55.375 50.25 60.0625 53.125 
Q 64.75 56 71.09375 56 
Q 79.640625 56 84.28125 50.015625 
Q 88.921875 44.046875 88.921875 33.015625 
L 88.921875 0 
L 79.890625 0 
L 79.890625 32.71875 
Q 79.890625 40.578125 77.09375 44.375 
Q 74.3125 48.1875 68.609375 48.1875 
Q 61.625 48.1875 57.5625 43.546875 
Q 53.515625 38.921875 53.515625 30.90625 
L 53.515625 0 
L 44.484375 0 
L 44.484375 32.71875 
Q 44.484375 40.625 41.703125 44.40625 
Q 38.921875 48.1875 33.109375 48.1875 
Q 26.21875 48.1875 22.15625 43.53125 
Q 18.109375 38.875 18.109375 30.90625 
L 18.109375 0 
L 9.078125 0 
L 9.078125 54.6875 
L 18.109375 54.6875 
L 18.109375 46.1875 
Q 21.1875 51.21875 25.484375 53.609375 
Q 29.78125 56 35.6875 56 
Q 41.65625 56 45.828125 52.96875 
Q 50 49.953125 52 44.1875 
z
" id="DejaVuSans-6d"/>
      <path d="M 48.6875 27.296875 
Q 48.6875 37.203125 44.609375 42.84375 
Q 40.53125 48.484375 33.40625 48.484375 
Q 26.265625 48.484375 22.1875 42.84375 
Q 18.109375 37.203125 18.109375 27.296875 
Q 18.109375 17.390625 22.1875 11.75 
Q 26.265625 6.109375 33.40625 6.109375 
Q 40.53125 6.109375 44.609375 11.75 
Q 48.6875 17.390625 48.6875 27.296875 
z
M 18.109375 46.390625 
Q 20.953125 51.265625 25.265625 53.625 
Q 29.59375 56 35.59375 56 
Q 45.5625 56 51.78125 48.09375 
Q 58.015625 40.1875 58.015625 27.296875 
Q 58.015625 14.40625 51.78125 6.484375 
Q 45.5625 -1.421875 35.59375 -1.421875 
Q 29.59375 -1.421875 25.265625 0.953125 
Q 20.953125 3.328125 18.109375 8.203125 
L 18.109375 0 
L 9.078125 0 
L 9.078125 75.984375 
L 18.109375 75.984375 
z
" id="DejaVuSans-62"/>
      <path id="DejaVuSans-20"/>
      <path d="M 37.109375 75.984375 
L 37.109375 68.5 
L 28.515625 68.5 
Q 23.6875 68.5 21.796875 66.546875 
Q 19.921875 64.59375 19.921875 59.515625 
L 19.921875 54.6875 
L 34.71875 54.6875 
L 34.71875 47.703125 
L 19.921875 47.703125 
L 19.921875 0 
L 10.890625 0 
L 10.890625 47.703125 
L 2.296875 47.703125 
L 2.296875 54.6875 
L 10.890625 54.6875 
L 10.890625 58.5 
Q 10.890625 67.625 15.140625 71.796875 
Q 19.390625 75.984375 28.609375 75.984375 
z
" id="DejaVuSans-66"/>
      <path d="M 48.78125 52.59375 
L 48.78125 44.1875 
Q 44.96875 46.296875 41.140625 47.34375 
Q 37.3125 48.390625 33.40625 48.390625 
Q 24.65625 48.390625 19.8125 42.84375 
Q 14.984375 37.3125 14.984375 27.296875 
Q 14.984375 17.28125 19.8125 11.734375 
Q 24.65625 6.203125 33.40625 6.203125 
Q 37.3125 6.203125 41.140625 7.25 
Q 44.96875 8.296875 48.78125 10.40625 
L 48.78125 2.09375 
Q 45.015625 0.34375 40.984375 -0.53125 
Q 36.96875 -1.421875 32.421875 -1.421875 
Q 20.0625 -1.421875 12.78125 6.34375 
Q 5.515625 14.109375 5.515625 27.296875 
Q 5.515625 40.671875 12.859375 48.328125 
Q 20.21875 56 33.015625 56 
Q 37.15625 56 41.109375 55.140625 
Q 45.0625 54.296875 48.78125 52.59375 
z
" id="DejaVuSans-63"/>
      <path d="M 44.28125 53.078125 
L 44.28125 44.578125 
Q 40.484375 46.53125 36.375 47.5 
Q 32.28125 48.484375 27.875 48.484375 
Q 21.1875 48.484375 17.84375 46.4375 
Q 14.5 44.390625 14.5 40.28125 
Q 14.5 37.15625 16.890625 35.375 
Q 19.28125 33.59375 26.515625 31.984375 
L 29.59375 31.296875 
Q 39.15625 29.25 43.1875 25.515625 
Q 47.21875 21.78125 47.21875 15.09375 
Q 47.21875 7.46875 41.1875 3.015625 
Q 35.15625 -1.421875 24.609375 -1.421875 
Q 20.21875 -1.421875 15.453125 -0.5625 
Q 10.6875 0.296875 5.421875 2 
L 5.421875 11.28125 
Q 10.40625 8.6875 15.234375 7.390625 
Q 20.0625 6.109375 24.8125 6.109375 
Q 31.15625 6.109375 34.5625 8.28125 
Q 37.984375 10.453125 37.984375 14.40625 
Q 37.984375 18.0625 35.515625 20.015625 
Q 33.0625 21.96875 24.703125 23.78125 
L 21.578125 24.515625 
Q 13.234375 26.265625 9.515625 29.90625 
Q 5.8125 33.546875 5.8125 39.890625 
Q 5.8125 47.609375 11.28125 51.796875 
Q 16.75 56 26.8125 56 
Q 31.78125 56 36.171875 55.265625 
Q 40.578125 54.546875 44.28125 53.078125 
z
" id="DejaVuSans-73"/>
      <path d="M 9.421875 75.984375 
L 18.40625 75.984375 
L 18.40625 0 
L 9.421875 0 
z
" id="DejaVuSans-6c"/>
      <path d="M 45.40625 27.984375 
Q 45.40625 37.75 41.375 43.109375 
Q 37.359375 48.484375 30.078125 48.484375 
Q 22.859375 48.484375 18.828125 43.109375 
Q 14.796875 37.75 14.796875 27.984375 
Q 14.796875 18.265625 18.828125 12.890625 
Q 22.859375 7.515625 30.078125 7.515625 
Q 37.359375 7.515625 41.375 12.890625 
Q 45.40625 18.265625 45.40625 27.984375 
z
M 54.390625 6.78125 
Q 54.390625 -7.171875 48.1875 -13.984375 
Q 42 -20.796875 29.203125 -20.796875 
Q 24.46875 -20.796875 20.265625 -20.09375 
Q 16.0625 -19.390625 12.109375 -17.921875 
L 12.109375 -9.1875 
Q 16.0625 -11.328125 19.921875 -12.34375 
Q 23.78125 -13.375 27.78125 -13.375 
Q 36.625 -13.375 41.015625 -8.765625 
Q 45.40625 -4.15625 45.40625 5.171875 
L 45.40625 9.625 
Q 42.625 4.78125 38.28125 2.390625 
Q 33.9375 0 27.875 0 
Q 17.828125 0 11.671875 7.65625 
Q 5.515625 15.328125 5.515625 27.984375 
Q 5.515625 40.671875 11.671875 48.328125 
Q 17.828125 56 27.875 56 
Q 33.9375 56 38.28125 53.609375 
Q 42.625 51.21875 45.40625 46.390625 
L 45.40625 54.6875 
L 54.390625 54.6875 
z
" id="DejaVuSans-67"/>
      <path d="M 45.40625 46.390625 
L 45.40625 75.984375 
L 54.390625 75.984375 
L 54.390625 0 
L 45.40625 0 
L 45.40625 8.203125 
Q 42.578125 3.328125 38.25 0.953125 
Q 33.9375 -1.421875 27.875 -1.421875 
Q 17.96875 -1.421875 11.734375 6.484375 
Q 5.515625 14.40625 5.515625 27.296875 
Q 5.515625 40.1875 11.734375 48.09375 
Q 17.96875 56 27.875 56 
Q 33.9375 56 38.25 53.625 
Q 42.578125 51.265625 45.40625 46.390625 
z
M 14.796875 27.296875 
Q 14.796875 17.390625 18.875 11.75 
Q 22.953125 6.109375 30.078125 6.109375 
Q 37.203125 6.109375 41.296875 11.75 
Q 45.40625 17.390625 45.40625 27.296875 
Q 45.40625 37.203125 41.296875 42.84375 
Q 37.203125 48.484375 30.078125 48.484375 
Q 22.953125 48.484375 18.875 42.84375 
Q 14.796875 37.203125 14.796875 27.296875 
z
" id="DejaVuSans-64"/>
     </defs>
     <g style="fill:#555555;" transform="translate(22.396875 388.8875)rotate(-90)scale(0.2 -0.2)">
      <use xlink:href="#DejaVuSans-4e"/>
      <use x="74.804688" xlink:href="#DejaVuSans-75"/>
      <use x="138.183594" xlink:href="#DejaVuSans-6d"/>
      <use x="235.595703" xlink:href="#DejaVuSans-62"/>
      <use x="299.072266" xlink:href="#DejaVuSans-65"/>
      <use x="360.595703" xlink:href="#DejaVuSans-72"/>
      <use x="401.708984" xlink:href="#DejaVuSans-20"/>
      <use x="433.496094" xlink:href="#DejaVuSans-6f"/>
      <use x="494.677734" xlink:href="#DejaVuSans-66"/>
      <use x="529.882812" xlink:href="#DejaVuSans-20"/>
      <use x="561.669922" xlink:href="#DejaVuSans-74"/>
      <use x="600.878906" xlink:href="#DejaVuSans-72"/>
      <use x="641.992188" xlink:href="#DejaVuSans-61"/>
      <use x="703.271484" xlink:href="#DejaVuSans-63"/>
      <use x="758.251953" xlink:href="#DejaVuSans-65"/>
      <use x="819.775391" xlink:href="#DejaVuSans-73"/>
      <use x="871.875" xlink:href="#DejaVuSans-20"/>
      <use x="903.662109" xlink:href="#DejaVuSans-61"/>
      <use x="964.941406" xlink:href="#DejaVuSans-6c"/>
      <use x="992.724609" xlink:href="#DejaVuSans-69"/>
      <use x="1020.507812" xlink:href="#DejaVuSans-67"/>
      <use x="1083.984375" xlink:href="#DejaVuSans-6e"/>
      <use x="1147.363281" xlink:href="#DejaVuSans-65"/>
      <use x="1208.886719" xlink:href="#DejaVuSans-64"/>
     </g>
    </g>
   </g>
   <g id="PathCollection_1">
    <defs>
     <path d="M 0 3.535534 
C 0.937635 3.535534 1.836992 3.163008 2.5 2.5 
C 3.163008 1.836992 3.535534 0.937635 3.535534 0 
C 3.535534 -0.937635 3.163008 -1.836992 2.5 -2.5 
C 1.836992 -3.163008 0.937635 -3.535534 0 -3.535534 
C -0.937635 -3.535534 -1.836992 -3.163008 -2.5 -2.5 
C -3.163008 -1.836992 -3.535534 -0.937635 -3.535534 0 
C -3.535534 0.937635 -3.163008 1.836992 -2.5 2.5 
C -1.836992 3.163008 -0.937635 3.535534 0 3.535534 
z
" id="m6465e88835" style="stroke:#ff0000;stroke-width:0.5;"/>
    </defs>
    <g clip-path="url(#pbd75e156ca)">
     <use style="fill:#ff0000;stroke:#ff0000;stroke-width:0.5;" x="101.1" xlink:href="#m6465e88835" y="39.191016"/>
     <use style="fill:#ff0000;stroke:#ff0000;stroke-width:0.5;" x="126.46875" xlink:href="#m6465e88835" y="40.104605"/>
     <use style="fill:#ff0000;stroke:#ff0000;stroke-width:0.5;" x="151.8375" xlink:href="#m6465e88835" y="40.104605"/>
     <use style="fill:#ff0000;stroke:#ff0000;stroke-width:0.5;" x="177.20625" xlink:href="#m6465e88835" y="40.104605"/>
     <use style="fill:#ff0000;stroke:#ff0000;stroke-width:0.5;" x="202.575" xlink:href="#m6465e88835" y="40.104605"/>
     <use style="fill:#ff0000;stroke:#ff0000;stroke-width:0.5;" x="227.94375" xlink:href="#m6465e88835" y="40.104605"/>
     <use style="fill:#ff0000;stroke:#ff0000;stroke-width:0.5;" x="253.3125" xlink:href="#m6465e88835" y="40.104605"/>
     <use style="fill:#ff0000;stroke:#ff0000;stroke-width:0.5;" x="278.68125" xlink:href="#m6465e88835" y="40.104605"/>
     <use style="fill:#ff0000;stroke:#ff0000;stroke-width:0.5;" x="304.05" xlink:href="#m6465e88835" y="40.104605"/>
     <use style="fill:#ff0000;stroke:#ff0000;stroke-width:0.5;" x="329.41875" xlink:href="#m6465e88835" y="40.104605"/>
     <use style="fill:#ff0000;stroke:#ff0000;stroke-width:0.5;" x="354.7875" xlink:href="#m6465e88835" y="40.104605"/>
     <use style="fill:#ff0000;stroke:#ff0000;stroke-width:0.5;" x="380.15625" xlink:href="#m6465e88835" y="40.104605"/>
     <use style="fill:#ff0000;stroke:#ff0000;stroke-width:0.5;" x="405.525" xlink:href="#m6465e88835" y="40.104605"/>
     <use style="fill:#ff0000;stroke:#ff0000;stroke-width:0.5;" x="430.89375" xlink:href="#m6465e88835" y="151.562495"/>
     <use style="fill:#ff0000;stroke:#ff0000;stroke-width:0.5;" x="456.2625" xlink:href="#m6465e88835" y="199.982725"/>
     <use style="fill:#ff0000;stroke:#ff0000;stroke-width:0.5;" x="481.63125" xlink:href="#m6465e88835" y="258.452438"/>
     <use style="fill:#ff0000;stroke:#ff0000;stroke-width:0.5;" x="507" xlink:href="#m6465e88835" y="262.106795"/>
     <use style="fill:#ff0000;stroke:#ff0000;stroke-width:0.5;" x="532.36875" xlink:href="#m6465e88835" y="262.106795"/>
    </g>
   </g>
   <g id="PathCollection_2">
    <defs>
     <path d="M 0 -3.535534 
L -3.535534 3.535534 
L 3.535534 3.535534 
z
" id="m9b54b5be35" style="stroke:#1e90ff;stroke-width:0.5;"/>
    </defs>
    <g clip-path="url(#pbd75e156ca)">
     <use style="fill:#1e90ff;stroke:#1e90ff;stroke-width:0.5;" x="101.1" xlink:href="#m9b54b5be35" y="39.191016"/>
     <use style="fill:#1e90ff;stroke:#1e90ff;stroke-width:0.5;" x="126.46875" xlink:href="#m9b54b5be35" y="50.154087"/>
     <use style="fill:#1e90ff;stroke:#1e90ff;stroke-width:0.5;" x="151.8375" xlink:href="#m9b54b5be35" y="90.352014"/>
     <use style="fill:#1e90ff;stroke:#1e90ff;stroke-width:0.5;" x="177.20625" xlink:href="#m9b54b5be35" y="95.83355"/>
     <use style="fill:#1e90ff;stroke:#1e90ff;stroke-width:0.5;" x="202.575" xlink:href="#m9b54b5be35" y="168.920691"/>
     <use style="fill:#1e90ff;stroke:#1e90ff;stroke-width:0.5;" x="227.94375" xlink:href="#m9b54b5be35" y="117.759692"/>
     <use style="fill:#1e90ff;stroke:#1e90ff;stroke-width:0.5;" x="253.3125" xlink:href="#m9b54b5be35" y="162.525566"/>
     <use style="fill:#1e90ff;stroke:#1e90ff;stroke-width:0.5;" x="278.68125" xlink:href="#m9b54b5be35" y="120.50046"/>
     <use style="fill:#1e90ff;stroke:#1e90ff;stroke-width:0.5;" x="304.05" xlink:href="#m9b54b5be35" y="48.326909"/>
     <use style="fill:#1e90ff;stroke:#1e90ff;stroke-width:0.5;" x="329.41875" xlink:href="#m9b54b5be35" y="52.894855"/>
     <use style="fill:#1e90ff;stroke:#1e90ff;stroke-width:0.5;" x="354.7875" xlink:href="#m9b54b5be35" y="113.191746"/>
     <use style="fill:#1e90ff;stroke:#1e90ff;stroke-width:0.5;" x="380.15625" xlink:href="#m9b54b5be35" y="46.49973"/>
     <use style="fill:#1e90ff;stroke:#1e90ff;stroke-width:0.5;" x="405.525" xlink:href="#m9b54b5be35" y="45.586141"/>
     <use style="fill:#1e90ff;stroke:#1e90ff;stroke-width:0.5;" x="430.89375" xlink:href="#m9b54b5be35" y="201.809904"/>
     <use style="fill:#1e90ff;stroke:#1e90ff;stroke-width:0.5;" x="456.2625" xlink:href="#m9b54b5be35" y="358.947256"/>
     <use style="fill:#1e90ff;stroke:#1e90ff;stroke-width:0.5;" x="481.63125" xlink:href="#m9b54b5be35" y="326.971632"/>
     <use style="fill:#1e90ff;stroke:#1e90ff;stroke-width:0.5;" x="507" xlink:href="#m9b54b5be35" y="413.762611"/>
     <use style="fill:#1e90ff;stroke:#1e90ff;stroke-width:0.5;" x="532.36875" xlink:href="#m9b54b5be35" y="406.453897"/>
     <use style="fill:#1e90ff;stroke:#1e90ff;stroke-width:0.5;" x="557.7375" xlink:href="#m9b54b5be35" y="314.181382"/>
     <use style="fill:#1e90ff;stroke:#1e90ff;stroke-width:0.5;" x="583.10625" xlink:href="#m9b54b5be35" y="411.021843"/>
     <use style="fill:#1e90ff;stroke:#1e90ff;stroke-width:0.5;" x="608.475" xlink:href="#m9b54b5be35" y="310.527025"/>
     <use style="fill:#1e90ff;stroke:#1e90ff;stroke-width:0.5;" x="633.84375" xlink:href="#m9b54b5be35" y="406.453897"/>
     <use style="fill:#1e90ff;stroke:#1e90ff;stroke-width:0.5;" x="659.2125" xlink:href="#m9b54b5be35" y="304.1319"/>
     <use style="fill:#1e90ff;stroke:#1e90ff;stroke-width:0.5;" x="684.58125" xlink:href="#m9b54b5be35" y="456.701306"/>
     <use style="fill:#1e90ff;stroke:#1e90ff;stroke-width:0.5;" x="709.95" xlink:href="#m9b54b5be35" y="482.281805"/>
     <use style="fill:#1e90ff;stroke:#1e90ff;stroke-width:0.5;" x="735.31875" xlink:href="#m9b54b5be35" y="481.368216"/>
     <use style="fill:#1e90ff;stroke:#1e90ff;stroke-width:0.5;" x="760.6875" xlink:href="#m9b54b5be35" y="456.701306"/>
     <use style="fill:#1e90ff;stroke:#1e90ff;stroke-width:0.5;" x="786.05625" xlink:href="#m9b54b5be35" y="484.108984"/>
    </g>
   </g>
   <g id="PathCollection_3">
    <defs>
     <path d="M -0 5 
L 5 0 
L 0 -5 
L -5 -0 
z
" id="mc43228d43c" style="stroke:#bc8f8f;stroke-width:0.5;"/>
    </defs>
    <g clip-path="url(#pbd75e156ca)">
     <use style="fill:#bc8f8f;stroke:#bc8f8f;stroke-width:0.5;" x="101.1" xlink:href="#mc43228d43c" y="39.191016"/>
     <use style="fill:#bc8f8f;stroke:#bc8f8f;stroke-width:0.5;" x="126.46875" xlink:href="#mc43228d43c" y="453.046949"/>
     <use style="fill:#bc8f8f;stroke:#bc8f8f;stroke-width:0.5;" x="151.8375" xlink:href="#mc43228d43c" y="453.046949"/>
     <use style="fill:#bc8f8f;stroke:#bc8f8f;stroke-width:0.5;" x="177.20625" xlink:href="#mc43228d43c" y="453.046949"/>
     <use style="fill:#bc8f8f;stroke:#bc8f8f;stroke-width:0.5;" x="202.575" xlink:href="#mc43228d43c" y="453.046949"/>
     <use style="fill:#bc8f8f;stroke:#bc8f8f;stroke-width:0.5;" x="227.94375" xlink:href="#mc43228d43c" y="453.046949"/>
     <use style="fill:#bc8f8f;stroke:#bc8f8f;stroke-width:0.5;" x="253.3125" xlink:href="#mc43228d43c" y="456.701306"/>
     <use style="fill:#bc8f8f;stroke:#bc8f8f;stroke-width:0.5;" x="278.68125" xlink:href="#mc43228d43c" y="453.046949"/>
     <use style="fill:#bc8f8f;stroke:#bc8f8f;stroke-width:0.5;" x="304.05" xlink:href="#mc43228d43c" y="453.046949"/>
     <use style="fill:#bc8f8f;stroke:#bc8f8f;stroke-width:0.5;" x="329.41875" xlink:href="#mc43228d43c" y="469.491556"/>
     <use style="fill:#bc8f8f;stroke:#bc8f8f;stroke-width:0.5;" x="354.7875" xlink:href="#mc43228d43c" y="453.046949"/>
     <use style="fill:#bc8f8f;stroke:#bc8f8f;stroke-width:0.5;" x="380.15625" xlink:href="#mc43228d43c" y="453.046949"/>
     <use style="fill:#bc8f8f;stroke:#bc8f8f;stroke-width:0.5;" x="405.525" xlink:href="#mc43228d43c" y="458.528485"/>
     <use style="fill:#bc8f8f;stroke:#bc8f8f;stroke-width:0.5;" x="430.89375" xlink:href="#mc43228d43c" y="459.442074"/>
     <use style="fill:#bc8f8f;stroke:#bc8f8f;stroke-width:0.5;" x="456.2625" xlink:href="#mc43228d43c" y="453.960538"/>
     <use style="fill:#bc8f8f;stroke:#bc8f8f;stroke-width:0.5;" x="481.63125" xlink:href="#mc43228d43c" y="316.92215"/>
     <use style="fill:#bc8f8f;stroke:#bc8f8f;stroke-width:0.5;" x="507" xlink:href="#mc43228d43c" y="347.070595"/>
     <use style="fill:#bc8f8f;stroke:#bc8f8f;stroke-width:0.5;" x="532.36875" xlink:href="#mc43228d43c" y="455.787717"/>
     <use style="fill:#bc8f8f;stroke:#bc8f8f;stroke-width:0.5;" x="557.7375" xlink:href="#mc43228d43c" y="439.34311"/>
     <use style="fill:#bc8f8f;stroke:#bc8f8f;stroke-width:0.5;" x="583.10625" xlink:href="#mc43228d43c" y="421.984914"/>
     <use style="fill:#bc8f8f;stroke:#bc8f8f;stroke-width:0.5;" x="608.475" xlink:href="#mc43228d43c" y="218.25451"/>
     <use style="fill:#bc8f8f;stroke:#bc8f8f;stroke-width:0.5;" x="633.84375" xlink:href="#mc43228d43c" y="428.380039"/>
     <use style="fill:#bc8f8f;stroke:#bc8f8f;stroke-width:0.5;" x="659.2125" xlink:href="#mc43228d43c" y="428.380039"/>
     <use style="fill:#bc8f8f;stroke:#bc8f8f;stroke-width:0.5;" x="684.58125" xlink:href="#mc43228d43c" y="419.244147"/>
     <use style="fill:#bc8f8f;stroke:#bc8f8f;stroke-width:0.5;" x="709.95" xlink:href="#mc43228d43c" y="428.380039"/>
     <use style="fill:#bc8f8f;stroke:#bc8f8f;stroke-width:0.5;" x="735.31875" xlink:href="#mc43228d43c" y="403.713129"/>
     <use style="fill:#bc8f8f;stroke:#bc8f8f;stroke-width:0.5;" x="760.6875" xlink:href="#mc43228d43c" y="424.725682"/>
     <use style="fill:#bc8f8f;stroke:#bc8f8f;stroke-width:0.5;" x="786.05625" xlink:href="#mc43228d43c" y="442.997467"/>
     <use style="fill:#bc8f8f;stroke:#bc8f8f;stroke-width:0.5;" x="811.425" xlink:href="#mc43228d43c" y="443.911057"/>
     <use style="fill:#bc8f8f;stroke:#bc8f8f;stroke-width:0.5;" x="836.79375" xlink:href="#mc43228d43c" y="479.541038"/>
     <use style="fill:#bc8f8f;stroke:#bc8f8f;stroke-width:0.5;" x="862.1625" xlink:href="#mc43228d43c" y="484.108984"/>
    </g>
   </g>
   <g id="line2d_45">
    <path clip-path="url(#pbd75e156ca)" d="M 101.1 39.191016 
L 126.46875 40.104605 
L 151.8375 40.104605 
L 177.20625 40.104605 
L 202.575 40.104605 
L 227.94375 40.104605 
L 253.3125 40.104605 
L 278.68125 40.104605 
L 304.05 40.104605 
L 329.41875 40.104605 
L 354.7875 40.104605 
L 380.15625 40.104605 
L 405.525 40.104605 
L 430.89375 151.562495 
L 456.2625 199.982725 
L 481.63125 258.452438 
L 507 262.106795 
L 532.36875 262.106795 
" style="fill:none;stroke:#e24a33;stroke-linecap:square;stroke-width:2;"/>
   </g>
   <g id="line2d_46">
    <path clip-path="url(#pbd75e156ca)" d="M 101.1 39.191016 
L 126.46875 50.154087 
L 151.8375 90.352014 
L 177.20625 95.83355 
L 202.575 168.920691 
L 227.94375 117.759692 
L 253.3125 162.525566 
L 278.68125 120.50046 
L 304.05 48.326909 
L 329.41875 52.894855 
L 354.7875 113.191746 
L 380.15625 46.49973 
L 405.525 45.586141 
L 430.89375 201.809904 
L 456.2625 358.947256 
L 481.63125 326.971632 
L 507 413.762611 
L 532.36875 406.453897 
L 557.7375 314.181382 
L 583.10625 411.021843 
L 608.475 310.527025 
L 633.84375 406.453897 
L 659.2125 304.1319 
L 684.58125 456.701306 
L 709.95 482.281805 
L 735.31875 481.368216 
L 760.6875 456.701306 
L 786.05625 484.108984 
" style="fill:none;stroke:#348abd;stroke-linecap:square;stroke-width:2;"/>
   </g>
   <g id="line2d_47">
    <path clip-path="url(#pbd75e156ca)" d="M 101.1 39.191016 
L 126.46875 453.046949 
L 151.8375 453.046949 
L 177.20625 453.046949 
L 202.575 453.046949 
L 227.94375 453.046949 
L 253.3125 456.701306 
L 278.68125 453.046949 
L 304.05 453.046949 
L 329.41875 469.491556 
L 354.7875 453.046949 
L 380.15625 453.046949 
L 405.525 458.528485 
L 430.89375 459.442074 
L 456.2625 453.960538 
L 481.63125 316.92215 
L 507 347.070595 
L 532.36875 455.787717 
L 557.7375 439.34311 
L 583.10625 421.984914 
L 608.475 218.25451 
L 633.84375 428.380039 
L 659.2125 428.380039 
L 684.58125 419.244147 
L 709.95 428.380039 
L 735.31875 403.713129 
L 760.6875 424.725682 
L 786.05625 442.997467 
L 811.425 443.911057 
L 836.79375 479.541038 
L 862.1625 484.108984 
" style="fill:none;stroke:#988ed5;stroke-linecap:square;stroke-width:2;"/>
   </g>
   <g id="patch_3">
    <path d="M 75.73125 512.6 
L 75.73125 10.7 
" style="fill:none;stroke:#ffffff;stroke-linecap:square;stroke-linejoin:miter;"/>
   </g>
   <g id="patch_4">
    <path d="M 887.53125 512.6 
L 887.53125 10.7 
" style="fill:none;stroke:#ffffff;stroke-linecap:square;stroke-linejoin:miter;"/>
   </g>
   <g id="patch_5">
    <path d="M 75.73125 512.6 
L 887.53125 512.6 
" style="fill:none;stroke:#ffffff;stroke-linecap:square;stroke-linejoin:miter;"/>
   </g>
   <g id="patch_6">
    <path d="M 75.73125 10.7 
L 887.53125 10.7 
" style="fill:none;stroke:#ffffff;stroke-linecap:square;stroke-linejoin:miter;"/>
   </g>
   <g id="legend_1">
    <g id="patch_7">
     <path d="M 776.96875 114.76875 
L 873.53125 114.76875 
Q 877.53125 114.76875 877.53125 110.76875 
L 877.53125 24.7 
Q 877.53125 20.7 873.53125 20.7 
L 776.96875 20.7 
Q 772.96875 20.7 772.96875 24.7 
L 772.96875 110.76875 
Q 772.96875 114.76875 776.96875 114.76875 
z
" style="fill:#e5e5e5;opacity:0.8;stroke:#cccccc;stroke-linejoin:miter;stroke-width:0.5;"/>
    </g>
    <g id="PathCollection_4">
     <g>
      <use style="fill:#ff0000;stroke:#ff0000;stroke-width:0.5;" x="800.96875" xlink:href="#m6465e88835" y="38.646875"/>
     </g>
    </g>
    <g id="text_25">
     <!-- All -->
     <defs>
      <path d="M 34.1875 63.1875 
L 20.796875 26.90625 
L 47.609375 26.90625 
z
M 28.609375 72.90625 
L 39.796875 72.90625 
L 67.578125 0 
L 57.328125 0 
L 50.6875 18.703125 
L 17.828125 18.703125 
L 11.1875 0 
L 0.78125 0 
z
" id="DejaVuSans-41"/>
     </defs>
     <g transform="translate(836.96875 43.896875)scale(0.2 -0.2)">
      <use xlink:href="#DejaVuSans-41"/>
      <use x="68.408203" xlink:href="#DejaVuSans-6c"/>
      <use x="96.191406" xlink:href="#DejaVuSans-6c"/>
     </g>
    </g>
    <g id="PathCollection_5">
     <g>
      <use style="fill:#1e90ff;stroke:#1e90ff;stroke-width:0.5;" x="800.96875" xlink:href="#m9b54b5be35" y="68.003125"/>
     </g>
    </g>
    <g id="text_26">
     <!-- IC -->
     <defs>
      <path d="M 64.40625 67.28125 
L 64.40625 56.890625 
Q 59.421875 61.53125 53.78125 63.8125 
Q 48.140625 66.109375 41.796875 66.109375 
Q 29.296875 66.109375 22.65625 58.46875 
Q 16.015625 50.828125 16.015625 36.375 
Q 16.015625 21.96875 22.65625 14.328125 
Q 29.296875 6.6875 41.796875 6.6875 
Q 48.140625 6.6875 53.78125 8.984375 
Q 59.421875 11.28125 64.40625 15.921875 
L 64.40625 5.609375 
Q 59.234375 2.09375 53.4375 0.328125 
Q 47.65625 -1.421875 41.21875 -1.421875 
Q 24.65625 -1.421875 15.125 8.703125 
Q 5.609375 18.84375 5.609375 36.375 
Q 5.609375 53.953125 15.125 64.078125 
Q 24.65625 74.21875 41.21875 74.21875 
Q 47.75 74.21875 53.53125 72.484375 
Q 59.328125 70.75 64.40625 67.28125 
z
" id="DejaVuSans-43"/>
     </defs>
     <g transform="translate(836.96875 73.253125)scale(0.2 -0.2)">
      <use xlink:href="#DejaVuSans-49"/>
      <use x="29.492188" xlink:href="#DejaVuSans-43"/>
     </g>
    </g>
    <g id="PathCollection_6">
     <g>
      <use style="fill:#bc8f8f;stroke:#bc8f8f;stroke-width:0.5;" x="800.96875" xlink:href="#mc43228d43c" y="97.359375"/>
     </g>
    </g>
    <g id="text_27">
     <!-- SIC -->
     <defs>
      <path d="M 53.515625 70.515625 
L 53.515625 60.890625 
Q 47.90625 63.578125 42.921875 64.890625 
Q 37.9375 66.21875 33.296875 66.21875 
Q 25.25 66.21875 20.875 63.09375 
Q 16.5 59.96875 16.5 54.203125 
Q 16.5 49.359375 19.40625 46.890625 
Q 22.3125 44.4375 30.421875 42.921875 
L 36.375 41.703125 
Q 47.40625 39.59375 52.65625 34.296875 
Q 57.90625 29 57.90625 20.125 
Q 57.90625 9.515625 50.796875 4.046875 
Q 43.703125 -1.421875 29.984375 -1.421875 
Q 24.8125 -1.421875 18.96875 -0.25 
Q 13.140625 0.921875 6.890625 3.21875 
L 6.890625 13.375 
Q 12.890625 10.015625 18.65625 8.296875 
Q 24.421875 6.59375 29.984375 6.59375 
Q 38.421875 6.59375 43.015625 9.90625 
Q 47.609375 13.234375 47.609375 19.390625 
Q 47.609375 24.75 44.3125 27.78125 
Q 41.015625 30.8125 33.5 32.328125 
L 27.484375 33.5 
Q 16.453125 35.6875 11.515625 40.375 
Q 6.59375 45.0625 6.59375 53.421875 
Q 6.59375 63.09375 13.40625 68.65625 
Q 20.21875 74.21875 32.171875 74.21875 
Q 37.3125 74.21875 42.625 73.28125 
Q 47.953125 72.359375 53.515625 70.515625 
z
" id="DejaVuSans-53"/>
     </defs>
     <g transform="translate(836.96875 102.609375)scale(0.2 -0.2)">
      <use xlink:href="#DejaVuSans-53"/>
      <use x="63.476562" xlink:href="#DejaVuSans-49"/>
      <use x="92.96875" xlink:href="#DejaVuSans-43"/>
     </g>
    </g>
   </g>
  </g>
  <g id="axes_2">
   <g id="patch_8">
    <path d="M 970.33125 512.6 
L 1782.13125 512.6 
L 1782.13125 10.7 
L 970.33125 10.7 
z
" style="fill:#e5e5e5;"/>
   </g>
   <g id="matplotlib.axis_3">
    <g id="xtick_17">
     <g id="line2d_48">
      <path clip-path="url(#pc98ad4b4c6)" d="M 970.33125 512.6 
L 970.33125 10.7 
" style="fill:none;stroke:#ffffff;stroke-linecap:square;stroke-width:0.8;"/>
     </g>
     <g id="line2d_49">
      <g>
       <use style="fill:#555555;stroke:#555555;stroke-width:0.8;" x="970.33125" xlink:href="#m1d450754ea" y="512.6"/>
      </g>
     </g>
     <g id="text_28">
      <!-- 0 -->
      <g style="fill:#555555;" transform="translate(963.96875 534.796875)scale(0.2 -0.2)">
       <use xlink:href="#DejaVuSans-30"/>
      </g>
     </g>
    </g>
    <g id="xtick_18">
     <g id="line2d_50">
      <path clip-path="url(#pc98ad4b4c6)" d="M 1021.06875 512.6 
L 1021.06875 10.7 
" style="fill:none;stroke:#ffffff;stroke-linecap:square;stroke-width:0.8;"/>
     </g>
     <g id="line2d_51">
      <g>
       <use style="fill:#555555;stroke:#555555;stroke-width:0.8;" x="1021.06875" xlink:href="#m1d450754ea" y="512.6"/>
      </g>
     </g>
     <g id="text_29">
      <!-- 2 -->
      <g style="fill:#555555;" transform="translate(1014.70625 534.796875)scale(0.2 -0.2)">
       <use xlink:href="#DejaVuSans-32"/>
      </g>
     </g>
    </g>
    <g id="xtick_19">
     <g id="line2d_52">
      <path clip-path="url(#pc98ad4b4c6)" d="M 1071.80625 512.6 
L 1071.80625 10.7 
" style="fill:none;stroke:#ffffff;stroke-linecap:square;stroke-width:0.8;"/>
     </g>
     <g id="line2d_53">
      <g>
       <use style="fill:#555555;stroke:#555555;stroke-width:0.8;" x="1071.80625" xlink:href="#m1d450754ea" y="512.6"/>
      </g>
     </g>
     <g id="text_30">
      <!-- 4 -->
      <g style="fill:#555555;" transform="translate(1065.44375 534.796875)scale(0.2 -0.2)">
       <use xlink:href="#DejaVuSans-34"/>
      </g>
     </g>
    </g>
    <g id="xtick_20">
     <g id="line2d_54">
      <path clip-path="url(#pc98ad4b4c6)" d="M 1122.54375 512.6 
L 1122.54375 10.7 
" style="fill:none;stroke:#ffffff;stroke-linecap:square;stroke-width:0.8;"/>
     </g>
     <g id="line2d_55">
      <g>
       <use style="fill:#555555;stroke:#555555;stroke-width:0.8;" x="1122.54375" xlink:href="#m1d450754ea" y="512.6"/>
      </g>
     </g>
     <g id="text_31">
      <!-- 6 -->
      <g style="fill:#555555;" transform="translate(1116.18125 534.796875)scale(0.2 -0.2)">
       <use xlink:href="#DejaVuSans-36"/>
      </g>
     </g>
    </g>
    <g id="xtick_21">
     <g id="line2d_56">
      <path clip-path="url(#pc98ad4b4c6)" d="M 1173.28125 512.6 
L 1173.28125 10.7 
" style="fill:none;stroke:#ffffff;stroke-linecap:square;stroke-width:0.8;"/>
     </g>
     <g id="line2d_57">
      <g>
       <use style="fill:#555555;stroke:#555555;stroke-width:0.8;" x="1173.28125" xlink:href="#m1d450754ea" y="512.6"/>
      </g>
     </g>
     <g id="text_32">
      <!-- 8 -->
      <g style="fill:#555555;" transform="translate(1166.91875 534.796875)scale(0.2 -0.2)">
       <use xlink:href="#DejaVuSans-38"/>
      </g>
     </g>
    </g>
    <g id="xtick_22">
     <g id="line2d_58">
      <path clip-path="url(#pc98ad4b4c6)" d="M 1224.01875 512.6 
L 1224.01875 10.7 
" style="fill:none;stroke:#ffffff;stroke-linecap:square;stroke-width:0.8;"/>
     </g>
     <g id="line2d_59">
      <g>
       <use style="fill:#555555;stroke:#555555;stroke-width:0.8;" x="1224.01875" xlink:href="#m1d450754ea" y="512.6"/>
      </g>
     </g>
     <g id="text_33">
      <!-- 10 -->
      <g style="fill:#555555;" transform="translate(1211.29375 534.796875)scale(0.2 -0.2)">
       <use xlink:href="#DejaVuSans-31"/>
       <use x="63.623047" xlink:href="#DejaVuSans-30"/>
      </g>
     </g>
    </g>
    <g id="xtick_23">
     <g id="line2d_60">
      <path clip-path="url(#pc98ad4b4c6)" d="M 1274.75625 512.6 
L 1274.75625 10.7 
" style="fill:none;stroke:#ffffff;stroke-linecap:square;stroke-width:0.8;"/>
     </g>
     <g id="line2d_61">
      <g>
       <use style="fill:#555555;stroke:#555555;stroke-width:0.8;" x="1274.75625" xlink:href="#m1d450754ea" y="512.6"/>
      </g>
     </g>
     <g id="text_34">
      <!-- 12 -->
      <g style="fill:#555555;" transform="translate(1262.03125 534.796875)scale(0.2 -0.2)">
       <use xlink:href="#DejaVuSans-31"/>
       <use x="63.623047" xlink:href="#DejaVuSans-32"/>
      </g>
     </g>
    </g>
    <g id="xtick_24">
     <g id="line2d_62">
      <path clip-path="url(#pc98ad4b4c6)" d="M 1325.49375 512.6 
L 1325.49375 10.7 
" style="fill:none;stroke:#ffffff;stroke-linecap:square;stroke-width:0.8;"/>
     </g>
     <g id="line2d_63">
      <g>
       <use style="fill:#555555;stroke:#555555;stroke-width:0.8;" x="1325.49375" xlink:href="#m1d450754ea" y="512.6"/>
      </g>
     </g>
     <g id="text_35">
      <!-- 14 -->
      <g style="fill:#555555;" transform="translate(1312.76875 534.796875)scale(0.2 -0.2)">
       <use xlink:href="#DejaVuSans-31"/>
       <use x="63.623047" xlink:href="#DejaVuSans-34"/>
      </g>
     </g>
    </g>
    <g id="xtick_25">
     <g id="line2d_64">
      <path clip-path="url(#pc98ad4b4c6)" d="M 1376.23125 512.6 
L 1376.23125 10.7 
" style="fill:none;stroke:#ffffff;stroke-linecap:square;stroke-width:0.8;"/>
     </g>
     <g id="line2d_65">
      <g>
       <use style="fill:#555555;stroke:#555555;stroke-width:0.8;" x="1376.23125" xlink:href="#m1d450754ea" y="512.6"/>
      </g>
     </g>
     <g id="text_36">
      <!-- 16 -->
      <g style="fill:#555555;" transform="translate(1363.50625 534.796875)scale(0.2 -0.2)">
       <use xlink:href="#DejaVuSans-31"/>
       <use x="63.623047" xlink:href="#DejaVuSans-36"/>
      </g>
     </g>
    </g>
    <g id="xtick_26">
     <g id="line2d_66">
      <path clip-path="url(#pc98ad4b4c6)" d="M 1426.96875 512.6 
L 1426.96875 10.7 
" style="fill:none;stroke:#ffffff;stroke-linecap:square;stroke-width:0.8;"/>
     </g>
     <g id="line2d_67">
      <g>
       <use style="fill:#555555;stroke:#555555;stroke-width:0.8;" x="1426.96875" xlink:href="#m1d450754ea" y="512.6"/>
      </g>
     </g>
     <g id="text_37">
      <!-- 18 -->
      <g style="fill:#555555;" transform="translate(1414.24375 534.796875)scale(0.2 -0.2)">
       <use xlink:href="#DejaVuSans-31"/>
       <use x="63.623047" xlink:href="#DejaVuSans-38"/>
      </g>
     </g>
    </g>
    <g id="xtick_27">
     <g id="line2d_68">
      <path clip-path="url(#pc98ad4b4c6)" d="M 1477.70625 512.6 
L 1477.70625 10.7 
" style="fill:none;stroke:#ffffff;stroke-linecap:square;stroke-width:0.8;"/>
     </g>
     <g id="line2d_69">
      <g>
       <use style="fill:#555555;stroke:#555555;stroke-width:0.8;" x="1477.70625" xlink:href="#m1d450754ea" y="512.6"/>
      </g>
     </g>
     <g id="text_38">
      <!-- 20 -->
      <g style="fill:#555555;" transform="translate(1464.98125 534.796875)scale(0.2 -0.2)">
       <use xlink:href="#DejaVuSans-32"/>
       <use x="63.623047" xlink:href="#DejaVuSans-30"/>
      </g>
     </g>
    </g>
    <g id="xtick_28">
     <g id="line2d_70">
      <path clip-path="url(#pc98ad4b4c6)" d="M 1528.44375 512.6 
L 1528.44375 10.7 
" style="fill:none;stroke:#ffffff;stroke-linecap:square;stroke-width:0.8;"/>
     </g>
     <g id="line2d_71">
      <g>
       <use style="fill:#555555;stroke:#555555;stroke-width:0.8;" x="1528.44375" xlink:href="#m1d450754ea" y="512.6"/>
      </g>
     </g>
     <g id="text_39">
      <!-- 22 -->
      <g style="fill:#555555;" transform="translate(1515.71875 534.796875)scale(0.2 -0.2)">
       <use xlink:href="#DejaVuSans-32"/>
       <use x="63.623047" xlink:href="#DejaVuSans-32"/>
      </g>
     </g>
    </g>
    <g id="xtick_29">
     <g id="line2d_72">
      <path clip-path="url(#pc98ad4b4c6)" d="M 1579.18125 512.6 
L 1579.18125 10.7 
" style="fill:none;stroke:#ffffff;stroke-linecap:square;stroke-width:0.8;"/>
     </g>
     <g id="line2d_73">
      <g>
       <use style="fill:#555555;stroke:#555555;stroke-width:0.8;" x="1579.18125" xlink:href="#m1d450754ea" y="512.6"/>
      </g>
     </g>
     <g id="text_40">
      <!-- 24 -->
      <g style="fill:#555555;" transform="translate(1566.45625 534.796875)scale(0.2 -0.2)">
       <use xlink:href="#DejaVuSans-32"/>
       <use x="63.623047" xlink:href="#DejaVuSans-34"/>
      </g>
     </g>
    </g>
    <g id="xtick_30">
     <g id="line2d_74">
      <path clip-path="url(#pc98ad4b4c6)" d="M 1629.91875 512.6 
L 1629.91875 10.7 
" style="fill:none;stroke:#ffffff;stroke-linecap:square;stroke-width:0.8;"/>
     </g>
     <g id="line2d_75">
      <g>
       <use style="fill:#555555;stroke:#555555;stroke-width:0.8;" x="1629.91875" xlink:href="#m1d450754ea" y="512.6"/>
      </g>
     </g>
     <g id="text_41">
      <!-- 26 -->
      <g style="fill:#555555;" transform="translate(1617.19375 534.796875)scale(0.2 -0.2)">
       <use xlink:href="#DejaVuSans-32"/>
       <use x="63.623047" xlink:href="#DejaVuSans-36"/>
      </g>
     </g>
    </g>
    <g id="xtick_31">
     <g id="line2d_76">
      <path clip-path="url(#pc98ad4b4c6)" d="M 1680.65625 512.6 
L 1680.65625 10.7 
" style="fill:none;stroke:#ffffff;stroke-linecap:square;stroke-width:0.8;"/>
     </g>
     <g id="line2d_77">
      <g>
       <use style="fill:#555555;stroke:#555555;stroke-width:0.8;" x="1680.65625" xlink:href="#m1d450754ea" y="512.6"/>
      </g>
     </g>
     <g id="text_42">
      <!-- 28 -->
      <g style="fill:#555555;" transform="translate(1667.93125 534.796875)scale(0.2 -0.2)">
       <use xlink:href="#DejaVuSans-32"/>
       <use x="63.623047" xlink:href="#DejaVuSans-38"/>
      </g>
     </g>
    </g>
    <g id="xtick_32">
     <g id="line2d_78">
      <path clip-path="url(#pc98ad4b4c6)" d="M 1731.39375 512.6 
L 1731.39375 10.7 
" style="fill:none;stroke:#ffffff;stroke-linecap:square;stroke-width:0.8;"/>
     </g>
     <g id="line2d_79">
      <g>
       <use style="fill:#555555;stroke:#555555;stroke-width:0.8;" x="1731.39375" xlink:href="#m1d450754ea" y="512.6"/>
      </g>
     </g>
     <g id="text_43">
      <!-- 30 -->
      <g style="fill:#555555;" transform="translate(1718.66875 534.796875)scale(0.2 -0.2)">
       <use xlink:href="#DejaVuSans-33"/>
       <use x="63.623047" xlink:href="#DejaVuSans-30"/>
      </g>
     </g>
    </g>
    <g id="text_44">
     <!-- Iteration -->
     <g style="fill:#555555;" transform="translate(1333.814063 558.153125)scale(0.2 -0.2)">
      <use xlink:href="#DejaVuSans-49"/>
      <use x="29.492188" xlink:href="#DejaVuSans-74"/>
      <use x="68.701172" xlink:href="#DejaVuSans-65"/>
      <use x="130.224609" xlink:href="#DejaVuSans-72"/>
      <use x="171.337891" xlink:href="#DejaVuSans-61"/>
      <use x="232.617188" xlink:href="#DejaVuSans-74"/>
      <use x="271.826172" xlink:href="#DejaVuSans-69"/>
      <use x="299.609375" xlink:href="#DejaVuSans-6f"/>
      <use x="360.791016" xlink:href="#DejaVuSans-6e"/>
     </g>
    </g>
   </g>
   <g id="matplotlib.axis_4">
    <g id="ytick_7">
     <g id="line2d_80">
      <path clip-path="url(#pc98ad4b4c6)" d="M 970.33125 484.133659 
L 1782.13125 484.133659 
" style="fill:none;stroke:#ffffff;stroke-linecap:square;stroke-width:0.8;"/>
     </g>
     <g id="line2d_81">
      <g>
       <use style="fill:#555555;stroke:#555555;stroke-width:0.8;" x="970.33125" xlink:href="#ma630b28a01" y="484.133659"/>
      </g>
     </g>
     <g id="text_45">
      <!-- 0 -->
      <g style="fill:#555555;" transform="translate(950.60625 491.732097)scale(0.2 -0.2)">
       <use xlink:href="#DejaVuSans-30"/>
      </g>
     </g>
    </g>
    <g id="ytick_8">
     <g id="line2d_82">
      <path clip-path="url(#pc98ad4b4c6)" d="M 970.33125 395.140196 
L 1782.13125 395.140196 
" style="fill:none;stroke:#ffffff;stroke-linecap:square;stroke-width:0.8;"/>
     </g>
     <g id="line2d_83">
      <g>
       <use style="fill:#555555;stroke:#555555;stroke-width:0.8;" x="970.33125" xlink:href="#ma630b28a01" y="395.140196"/>
      </g>
     </g>
     <g id="text_46">
      <!-- 20 -->
      <g style="fill:#555555;" transform="translate(937.88125 402.738633)scale(0.2 -0.2)">
       <use xlink:href="#DejaVuSans-32"/>
       <use x="63.623047" xlink:href="#DejaVuSans-30"/>
      </g>
     </g>
    </g>
    <g id="ytick_9">
     <g id="line2d_84">
      <path clip-path="url(#pc98ad4b4c6)" d="M 970.33125 306.146732 
L 1782.13125 306.146732 
" style="fill:none;stroke:#ffffff;stroke-linecap:square;stroke-width:0.8;"/>
     </g>
     <g id="line2d_85">
      <g>
       <use style="fill:#555555;stroke:#555555;stroke-width:0.8;" x="970.33125" xlink:href="#ma630b28a01" y="306.146732"/>
      </g>
     </g>
     <g id="text_47">
      <!-- 40 -->
      <g style="fill:#555555;" transform="translate(937.88125 313.745169)scale(0.2 -0.2)">
       <use xlink:href="#DejaVuSans-34"/>
       <use x="63.623047" xlink:href="#DejaVuSans-30"/>
      </g>
     </g>
    </g>
    <g id="ytick_10">
     <g id="line2d_86">
      <path clip-path="url(#pc98ad4b4c6)" d="M 970.33125 217.153268 
L 1782.13125 217.153268 
" style="fill:none;stroke:#ffffff;stroke-linecap:square;stroke-width:0.8;"/>
     </g>
     <g id="line2d_87">
      <g>
       <use style="fill:#555555;stroke:#555555;stroke-width:0.8;" x="970.33125" xlink:href="#ma630b28a01" y="217.153268"/>
      </g>
     </g>
     <g id="text_48">
      <!-- 60 -->
      <g style="fill:#555555;" transform="translate(937.88125 224.751706)scale(0.2 -0.2)">
       <use xlink:href="#DejaVuSans-36"/>
       <use x="63.623047" xlink:href="#DejaVuSans-30"/>
      </g>
     </g>
    </g>
    <g id="ytick_11">
     <g id="line2d_88">
      <path clip-path="url(#pc98ad4b4c6)" d="M 970.33125 128.159804 
L 1782.13125 128.159804 
" style="fill:none;stroke:#ffffff;stroke-linecap:square;stroke-width:0.8;"/>
     </g>
     <g id="line2d_89">
      <g>
       <use style="fill:#555555;stroke:#555555;stroke-width:0.8;" x="970.33125" xlink:href="#ma630b28a01" y="128.159804"/>
      </g>
     </g>
     <g id="text_49">
      <!-- 80 -->
      <g style="fill:#555555;" transform="translate(937.88125 135.758242)scale(0.2 -0.2)">
       <use xlink:href="#DejaVuSans-38"/>
       <use x="63.623047" xlink:href="#DejaVuSans-30"/>
      </g>
     </g>
    </g>
    <g id="ytick_12">
     <g id="line2d_90">
      <path clip-path="url(#pc98ad4b4c6)" d="M 970.33125 39.166341 
L 1782.13125 39.166341 
" style="fill:none;stroke:#ffffff;stroke-linecap:square;stroke-width:0.8;"/>
     </g>
     <g id="line2d_91">
      <g>
       <use style="fill:#555555;stroke:#555555;stroke-width:0.8;" x="970.33125" xlink:href="#ma630b28a01" y="39.166341"/>
      </g>
     </g>
     <g id="text_50">
      <!-- 100 -->
      <g style="fill:#555555;" transform="translate(925.15625 46.764778)scale(0.2 -0.2)">
       <use xlink:href="#DejaVuSans-31"/>
       <use x="63.623047" xlink:href="#DejaVuSans-30"/>
       <use x="127.246094" xlink:href="#DejaVuSans-30"/>
      </g>
     </g>
    </g>
    <g id="text_51">
     <!-- Percentage of valid alignments (%) -->
     <defs>
      <path d="M 19.671875 64.796875 
L 19.671875 37.40625 
L 32.078125 37.40625 
Q 38.96875 37.40625 42.71875 40.96875 
Q 46.484375 44.53125 46.484375 51.125 
Q 46.484375 57.671875 42.71875 61.234375 
Q 38.96875 64.796875 32.078125 64.796875 
z
M 9.8125 72.90625 
L 32.078125 72.90625 
Q 44.34375 72.90625 50.609375 67.359375 
Q 56.890625 61.8125 56.890625 51.125 
Q 56.890625 40.328125 50.609375 34.8125 
Q 44.34375 29.296875 32.078125 29.296875 
L 19.671875 29.296875 
L 19.671875 0 
L 9.8125 0 
z
" id="DejaVuSans-50"/>
      <path d="M 2.984375 54.6875 
L 12.5 54.6875 
L 29.59375 8.796875 
L 46.6875 54.6875 
L 56.203125 54.6875 
L 35.6875 0 
L 23.484375 0 
z
" id="DejaVuSans-76"/>
      <path d="M 31 75.875 
Q 24.46875 64.65625 21.28125 53.65625 
Q 18.109375 42.671875 18.109375 31.390625 
Q 18.109375 20.125 21.3125 9.0625 
Q 24.515625 -2 31 -13.1875 
L 23.1875 -13.1875 
Q 15.875 -1.703125 12.234375 9.375 
Q 8.59375 20.453125 8.59375 31.390625 
Q 8.59375 42.28125 12.203125 53.3125 
Q 15.828125 64.359375 23.1875 75.875 
z
" id="DejaVuSans-28"/>
      <path d="M 72.703125 32.078125 
Q 68.453125 32.078125 66.03125 28.46875 
Q 63.625 24.859375 63.625 18.40625 
Q 63.625 12.0625 66.03125 8.421875 
Q 68.453125 4.78125 72.703125 4.78125 
Q 76.859375 4.78125 79.265625 8.421875 
Q 81.6875 12.0625 81.6875 18.40625 
Q 81.6875 24.8125 79.265625 28.4375 
Q 76.859375 32.078125 72.703125 32.078125 
z
M 72.703125 38.28125 
Q 80.421875 38.28125 84.953125 32.90625 
Q 89.5 27.546875 89.5 18.40625 
Q 89.5 9.28125 84.9375 3.921875 
Q 80.375 -1.421875 72.703125 -1.421875 
Q 64.890625 -1.421875 60.34375 3.921875 
Q 55.8125 9.28125 55.8125 18.40625 
Q 55.8125 27.59375 60.375 32.9375 
Q 64.9375 38.28125 72.703125 38.28125 
z
M 22.3125 68.015625 
Q 18.109375 68.015625 15.6875 64.375 
Q 13.28125 60.75 13.28125 54.390625 
Q 13.28125 47.953125 15.671875 44.328125 
Q 18.0625 40.71875 22.3125 40.71875 
Q 26.5625 40.71875 28.96875 44.328125 
Q 31.390625 47.953125 31.390625 54.390625 
Q 31.390625 60.6875 28.953125 64.34375 
Q 26.515625 68.015625 22.3125 68.015625 
z
M 66.40625 74.21875 
L 74.21875 74.21875 
L 28.609375 -1.421875 
L 20.796875 -1.421875 
z
M 22.3125 74.21875 
Q 30.03125 74.21875 34.609375 68.875 
Q 39.203125 63.53125 39.203125 54.390625 
Q 39.203125 45.171875 34.640625 39.84375 
Q 30.078125 34.515625 22.3125 34.515625 
Q 14.546875 34.515625 10.03125 39.859375 
Q 5.515625 45.21875 5.515625 54.390625 
Q 5.515625 63.484375 10.046875 68.84375 
Q 14.59375 74.21875 22.3125 74.21875 
z
" id="DejaVuSans-25"/>
      <path d="M 8.015625 75.875 
L 15.828125 75.875 
Q 23.140625 64.359375 26.78125 53.3125 
Q 30.421875 42.28125 30.421875 31.390625 
Q 30.421875 20.453125 26.78125 9.375 
Q 23.140625 -1.703125 15.828125 -13.1875 
L 8.015625 -13.1875 
Q 14.5 -2 17.703125 9.0625 
Q 20.90625 20.125 20.90625 31.390625 
Q 20.90625 42.671875 17.703125 53.65625 
Q 14.5 64.65625 8.015625 75.875 
z
" id="DejaVuSans-29"/>
     </defs>
     <g style="fill:#555555;" transform="translate(916.996875 437.814063)rotate(-90)scale(0.2 -0.2)">
      <use xlink:href="#DejaVuSans-50"/>
      <use x="60.255859" xlink:href="#DejaVuSans-65"/>
      <use x="121.779297" xlink:href="#DejaVuSans-72"/>
      <use x="162.861328" xlink:href="#DejaVuSans-63"/>
      <use x="217.841797" xlink:href="#DejaVuSans-65"/>
      <use x="279.365234" xlink:href="#DejaVuSans-6e"/>
      <use x="342.744141" xlink:href="#DejaVuSans-74"/>
      <use x="381.953125" xlink:href="#DejaVuSans-61"/>
      <use x="443.232422" xlink:href="#DejaVuSans-67"/>
      <use x="506.708984" xlink:href="#DejaVuSans-65"/>
      <use x="568.232422" xlink:href="#DejaVuSans-20"/>
      <use x="600.019531" xlink:href="#DejaVuSans-6f"/>
      <use x="661.201172" xlink:href="#DejaVuSans-66"/>
      <use x="696.40625" xlink:href="#DejaVuSans-20"/>
      <use x="728.193359" xlink:href="#DejaVuSans-76"/>
      <use x="787.373047" xlink:href="#DejaVuSans-61"/>
      <use x="848.652344" xlink:href="#DejaVuSans-6c"/>
      <use x="876.435547" xlink:href="#DejaVuSans-69"/>
      <use x="904.21875" xlink:href="#DejaVuSans-64"/>
      <use x="967.695312" xlink:href="#DejaVuSans-20"/>
      <use x="999.482422" xlink:href="#DejaVuSans-61"/>
      <use x="1060.761719" xlink:href="#DejaVuSans-6c"/>
      <use x="1088.544922" xlink:href="#DejaVuSans-69"/>
      <use x="1116.328125" xlink:href="#DejaVuSans-67"/>
      <use x="1179.804688" xlink:href="#DejaVuSans-6e"/>
      <use x="1243.183594" xlink:href="#DejaVuSans-6d"/>
      <use x="1340.595703" xlink:href="#DejaVuSans-65"/>
      <use x="1402.119141" xlink:href="#DejaVuSans-6e"/>
      <use x="1465.498047" xlink:href="#DejaVuSans-74"/>
      <use x="1504.707031" xlink:href="#DejaVuSans-73"/>
      <use x="1556.806641" xlink:href="#DejaVuSans-20"/>
      <use x="1588.59375" xlink:href="#DejaVuSans-28"/>
      <use x="1627.607422" xlink:href="#DejaVuSans-25"/>
      <use x="1722.626953" xlink:href="#DejaVuSans-29"/>
     </g>
    </g>
   </g>
   <g id="PathCollection_7">
    <g clip-path="url(#pc98ad4b4c6)">
     <use style="fill:#ff0000;stroke:#ff0000;stroke-width:0.5;" x="995.7" xlink:href="#m6465e88835" y="483.225563"/>
     <use style="fill:#ff0000;stroke:#ff0000;stroke-width:0.5;" x="1021.06875" xlink:href="#m6465e88835" y="484.133659"/>
     <use style="fill:#ff0000;stroke:#ff0000;stroke-width:0.5;" x="1046.4375" xlink:href="#m6465e88835" y="484.133659"/>
     <use style="fill:#ff0000;stroke:#ff0000;stroke-width:0.5;" x="1071.80625" xlink:href="#m6465e88835" y="484.133659"/>
     <use style="fill:#ff0000;stroke:#ff0000;stroke-width:0.5;" x="1097.175" xlink:href="#m6465e88835" y="484.133659"/>
     <use style="fill:#ff0000;stroke:#ff0000;stroke-width:0.5;" x="1122.54375" xlink:href="#m6465e88835" y="484.133659"/>
     <use style="fill:#ff0000;stroke:#ff0000;stroke-width:0.5;" x="1147.9125" xlink:href="#m6465e88835" y="484.133659"/>
     <use style="fill:#ff0000;stroke:#ff0000;stroke-width:0.5;" x="1173.28125" xlink:href="#m6465e88835" y="484.133659"/>
     <use style="fill:#ff0000;stroke:#ff0000;stroke-width:0.5;" x="1198.65" xlink:href="#m6465e88835" y="484.133659"/>
     <use style="fill:#ff0000;stroke:#ff0000;stroke-width:0.5;" x="1224.01875" xlink:href="#m6465e88835" y="484.133659"/>
     <use style="fill:#ff0000;stroke:#ff0000;stroke-width:0.5;" x="1249.3875" xlink:href="#m6465e88835" y="484.133659"/>
     <use style="fill:#ff0000;stroke:#ff0000;stroke-width:0.5;" x="1274.75625" xlink:href="#m6465e88835" y="484.133659"/>
     <use style="fill:#ff0000;stroke:#ff0000;stroke-width:0.5;" x="1300.125" xlink:href="#m6465e88835" y="373.119318"/>
     <use style="fill:#ff0000;stroke:#ff0000;stroke-width:0.5;" x="1325.49375" xlink:href="#m6465e88835" y="419.874074"/>
     <use style="fill:#ff0000;stroke:#ff0000;stroke-width:0.5;" x="1350.8625" xlink:href="#m6465e88835" y="393.439684"/>
     <use style="fill:#ff0000;stroke:#ff0000;stroke-width:0.5;" x="1376.23125" xlink:href="#m6465e88835" y="477.014182"/>
     <use style="fill:#ff0000;stroke:#ff0000;stroke-width:0.5;" x="1401.6" xlink:href="#m6465e88835" y="484.133659"/>
     <use style="fill:#ff0000;stroke:#ff0000;stroke-width:0.5;" x="1426.96875" xlink:href="#m6465e88835" y="484.133659"/>
    </g>
   </g>
   <g id="PathCollection_8">
    <g clip-path="url(#pc98ad4b4c6)">
     <use style="fill:#1e90ff;stroke:#1e90ff;stroke-width:0.5;" x="995.7" xlink:href="#m9b54b5be35" y="483.225563"/>
     <use style="fill:#1e90ff;stroke:#1e90ff;stroke-width:0.5;" x="1021.06875" xlink:href="#m9b54b5be35" y="484.133659"/>
     <use style="fill:#1e90ff;stroke:#1e90ff;stroke-width:0.5;" x="1046.4375" xlink:href="#m9b54b5be35" y="484.133659"/>
     <use style="fill:#1e90ff;stroke:#1e90ff;stroke-width:0.5;" x="1071.80625" xlink:href="#m9b54b5be35" y="484.133659"/>
     <use style="fill:#1e90ff;stroke:#1e90ff;stroke-width:0.5;" x="1097.175" xlink:href="#m9b54b5be35" y="484.133659"/>
     <use style="fill:#1e90ff;stroke:#1e90ff;stroke-width:0.5;" x="1122.54375" xlink:href="#m9b54b5be35" y="484.133659"/>
     <use style="fill:#1e90ff;stroke:#1e90ff;stroke-width:0.5;" x="1147.9125" xlink:href="#m9b54b5be35" y="484.133659"/>
     <use style="fill:#1e90ff;stroke:#1e90ff;stroke-width:0.5;" x="1173.28125" xlink:href="#m9b54b5be35" y="484.133659"/>
     <use style="fill:#1e90ff;stroke:#1e90ff;stroke-width:0.5;" x="1198.65" xlink:href="#m9b54b5be35" y="484.133659"/>
     <use style="fill:#1e90ff;stroke:#1e90ff;stroke-width:0.5;" x="1224.01875" xlink:href="#m9b54b5be35" y="484.133659"/>
     <use style="fill:#1e90ff;stroke:#1e90ff;stroke-width:0.5;" x="1249.3875" xlink:href="#m9b54b5be35" y="484.133659"/>
     <use style="fill:#1e90ff;stroke:#1e90ff;stroke-width:0.5;" x="1274.75625" xlink:href="#m9b54b5be35" y="484.133659"/>
     <use style="fill:#1e90ff;stroke:#1e90ff;stroke-width:0.5;" x="1300.125" xlink:href="#m9b54b5be35" y="371.740258"/>
     <use style="fill:#1e90ff;stroke:#1e90ff;stroke-width:0.5;" x="1325.49375" xlink:href="#m9b54b5be35" y="408.546262"/>
     <use style="fill:#1e90ff;stroke:#1e90ff;stroke-width:0.5;" x="1350.8625" xlink:href="#m9b54b5be35" y="280.720028"/>
     <use style="fill:#1e90ff;stroke:#1e90ff;stroke-width:0.5;" x="1376.23125" xlink:href="#m9b54b5be35" y="473.962978"/>
     <use style="fill:#1e90ff;stroke:#1e90ff;stroke-width:0.5;" x="1401.6" xlink:href="#m9b54b5be35" y="484.133659"/>
     <use style="fill:#1e90ff;stroke:#1e90ff;stroke-width:0.5;" x="1426.96875" xlink:href="#m9b54b5be35" y="484.133659"/>
     <use style="fill:#1e90ff;stroke:#1e90ff;stroke-width:0.5;" x="1452.3375" xlink:href="#m9b54b5be35" y="484.133659"/>
     <use style="fill:#1e90ff;stroke:#1e90ff;stroke-width:0.5;" x="1477.70625" xlink:href="#m9b54b5be35" y="484.133659"/>
     <use style="fill:#1e90ff;stroke:#1e90ff;stroke-width:0.5;" x="1503.075" xlink:href="#m9b54b5be35" y="484.133659"/>
     <use style="fill:#1e90ff;stroke:#1e90ff;stroke-width:0.5;" x="1528.44375" xlink:href="#m9b54b5be35" y="484.133659"/>
     <use style="fill:#1e90ff;stroke:#1e90ff;stroke-width:0.5;" x="1553.8125" xlink:href="#m9b54b5be35" y="484.133659"/>
     <use style="fill:#1e90ff;stroke:#1e90ff;stroke-width:0.5;" x="1579.18125" xlink:href="#m9b54b5be35" y="484.133659"/>
     <use style="fill:#1e90ff;stroke:#1e90ff;stroke-width:0.5;" x="1604.55" xlink:href="#m9b54b5be35" y="39.166341"/>
     <use style="fill:#1e90ff;stroke:#1e90ff;stroke-width:0.5;" x="1629.91875" xlink:href="#m9b54b5be35" y="39.166341"/>
     <use style="fill:#1e90ff;stroke:#1e90ff;stroke-width:0.5;" x="1655.2875" xlink:href="#m9b54b5be35" y="52.650199"/>
     <use style="fill:#1e90ff;stroke:#1e90ff;stroke-width:0.5;" x="1680.65625" xlink:href="#m9b54b5be35" y="39.166341"/>
    </g>
   </g>
   <g id="PathCollection_9">
    <g clip-path="url(#pc98ad4b4c6)">
     <use style="fill:#bc8f8f;stroke:#bc8f8f;stroke-width:0.5;" x="995.7" xlink:href="#mc43228d43c" y="483.225563"/>
     <use style="fill:#bc8f8f;stroke:#bc8f8f;stroke-width:0.5;" x="1021.06875" xlink:href="#mc43228d43c" y="484.133659"/>
     <use style="fill:#bc8f8f;stroke:#bc8f8f;stroke-width:0.5;" x="1046.4375" xlink:href="#mc43228d43c" y="484.133659"/>
     <use style="fill:#bc8f8f;stroke:#bc8f8f;stroke-width:0.5;" x="1071.80625" xlink:href="#mc43228d43c" y="484.133659"/>
     <use style="fill:#bc8f8f;stroke:#bc8f8f;stroke-width:0.5;" x="1097.175" xlink:href="#mc43228d43c" y="484.133659"/>
     <use style="fill:#bc8f8f;stroke:#bc8f8f;stroke-width:0.5;" x="1122.54375" xlink:href="#mc43228d43c" y="484.133659"/>
     <use style="fill:#bc8f8f;stroke:#bc8f8f;stroke-width:0.5;" x="1147.9125" xlink:href="#mc43228d43c" y="484.133659"/>
     <use style="fill:#bc8f8f;stroke:#bc8f8f;stroke-width:0.5;" x="1173.28125" xlink:href="#mc43228d43c" y="484.133659"/>
     <use style="fill:#bc8f8f;stroke:#bc8f8f;stroke-width:0.5;" x="1198.65" xlink:href="#mc43228d43c" y="484.133659"/>
     <use style="fill:#bc8f8f;stroke:#bc8f8f;stroke-width:0.5;" x="1224.01875" xlink:href="#mc43228d43c" y="484.133659"/>
     <use style="fill:#bc8f8f;stroke:#bc8f8f;stroke-width:0.5;" x="1249.3875" xlink:href="#mc43228d43c" y="484.133659"/>
     <use style="fill:#bc8f8f;stroke:#bc8f8f;stroke-width:0.5;" x="1274.75625" xlink:href="#mc43228d43c" y="484.133659"/>
     <use style="fill:#bc8f8f;stroke:#bc8f8f;stroke-width:0.5;" x="1300.125" xlink:href="#mc43228d43c" y="484.133659"/>
     <use style="fill:#bc8f8f;stroke:#bc8f8f;stroke-width:0.5;" x="1325.49375" xlink:href="#mc43228d43c" y="484.133659"/>
     <use style="fill:#bc8f8f;stroke:#bc8f8f;stroke-width:0.5;" x="1350.8625" xlink:href="#mc43228d43c" y="484.133659"/>
     <use style="fill:#bc8f8f;stroke:#bc8f8f;stroke-width:0.5;" x="1376.23125" xlink:href="#mc43228d43c" y="484.133659"/>
     <use style="fill:#bc8f8f;stroke:#bc8f8f;stroke-width:0.5;" x="1401.6" xlink:href="#mc43228d43c" y="484.133659"/>
     <use style="fill:#bc8f8f;stroke:#bc8f8f;stroke-width:0.5;" x="1426.96875" xlink:href="#mc43228d43c" y="300.911822"/>
     <use style="fill:#bc8f8f;stroke:#bc8f8f;stroke-width:0.5;" x="1452.3375" xlink:href="#mc43228d43c" y="484.133659"/>
     <use style="fill:#bc8f8f;stroke:#bc8f8f;stroke-width:0.5;" x="1477.70625" xlink:href="#mc43228d43c" y="258.516427"/>
     <use style="fill:#bc8f8f;stroke:#bc8f8f;stroke-width:0.5;" x="1503.075" xlink:href="#mc43228d43c" y="136.029975"/>
     <use style="fill:#bc8f8f;stroke:#bc8f8f;stroke-width:0.5;" x="1528.44375" xlink:href="#mc43228d43c" y="484.133659"/>
     <use style="fill:#bc8f8f;stroke:#bc8f8f;stroke-width:0.5;" x="1553.8125" xlink:href="#mc43228d43c" y="484.133659"/>
     <use style="fill:#bc8f8f;stroke:#bc8f8f;stroke-width:0.5;" x="1579.18125" xlink:href="#mc43228d43c" y="484.133659"/>
     <use style="fill:#bc8f8f;stroke:#bc8f8f;stroke-width:0.5;" x="1604.55" xlink:href="#mc43228d43c" y="484.133659"/>
     <use style="fill:#bc8f8f;stroke:#bc8f8f;stroke-width:0.5;" x="1629.91875" xlink:href="#mc43228d43c" y="78.284347"/>
     <use style="fill:#bc8f8f;stroke:#bc8f8f;stroke-width:0.5;" x="1655.2875" xlink:href="#mc43228d43c" y="39.166341"/>
     <use style="fill:#bc8f8f;stroke:#bc8f8f;stroke-width:0.5;" x="1680.65625" xlink:href="#mc43228d43c" y="484.133659"/>
     <use style="fill:#bc8f8f;stroke:#bc8f8f;stroke-width:0.5;" x="1706.025" xlink:href="#mc43228d43c" y="39.166341"/>
     <use style="fill:#bc8f8f;stroke:#bc8f8f;stroke-width:0.5;" x="1731.39375" xlink:href="#mc43228d43c" y="39.166341"/>
     <use style="fill:#bc8f8f;stroke:#bc8f8f;stroke-width:0.5;" x="1756.7625" xlink:href="#mc43228d43c" y="39.166341"/>
    </g>
   </g>
   <g id="line2d_92">
    <path clip-path="url(#pc98ad4b4c6)" d="M 995.7 483.225563 
L 1021.06875 484.133659 
L 1046.4375 484.133659 
L 1071.80625 484.133659 
L 1097.175 484.133659 
L 1122.54375 484.133659 
L 1147.9125 484.133659 
L 1173.28125 484.133659 
L 1198.65 484.133659 
L 1224.01875 484.133659 
L 1249.3875 484.133659 
L 1274.75625 484.133659 
L 1300.125 373.119318 
L 1325.49375 419.874074 
L 1350.8625 393.439684 
L 1376.23125 477.014182 
L 1401.6 484.133659 
L 1426.96875 484.133659 
" style="fill:none;stroke:#e24a33;stroke-linecap:square;stroke-width:2;"/>
   </g>
   <g id="line2d_93">
    <path clip-path="url(#pc98ad4b4c6)" d="M 995.7 483.225563 
L 1021.06875 484.133659 
L 1046.4375 484.133659 
L 1071.80625 484.133659 
L 1097.175 484.133659 
L 1122.54375 484.133659 
L 1147.9125 484.133659 
L 1173.28125 484.133659 
L 1198.65 484.133659 
L 1224.01875 484.133659 
L 1249.3875 484.133659 
L 1274.75625 484.133659 
L 1300.125 371.740258 
L 1325.49375 408.546262 
L 1350.8625 280.720028 
L 1376.23125 473.962978 
L 1401.6 484.133659 
L 1426.96875 484.133659 
L 1452.3375 484.133659 
L 1477.70625 484.133659 
L 1503.075 484.133659 
L 1528.44375 484.133659 
L 1553.8125 484.133659 
L 1579.18125 484.133659 
L 1604.55 39.166341 
L 1629.91875 39.166341 
L 1655.2875 52.650199 
L 1680.65625 39.166341 
" style="fill:none;stroke:#348abd;stroke-linecap:square;stroke-width:2;"/>
   </g>
   <g id="line2d_94">
    <path clip-path="url(#pc98ad4b4c6)" d="M 995.7 483.225563 
L 1021.06875 484.133659 
L 1046.4375 484.133659 
L 1071.80625 484.133659 
L 1097.175 484.133659 
L 1122.54375 484.133659 
L 1147.9125 484.133659 
L 1173.28125 484.133659 
L 1198.65 484.133659 
L 1224.01875 484.133659 
L 1249.3875 484.133659 
L 1274.75625 484.133659 
L 1300.125 484.133659 
L 1325.49375 484.133659 
L 1350.8625 484.133659 
L 1376.23125 484.133659 
L 1401.6 484.133659 
L 1426.96875 300.911822 
L 1452.3375 484.133659 
L 1477.70625 258.516427 
L 1503.075 136.029975 
L 1528.44375 484.133659 
L 1553.8125 484.133659 
L 1579.18125 484.133659 
L 1604.55 484.133659 
L 1629.91875 78.284347 
L 1655.2875 39.166341 
L 1680.65625 484.133659 
L 1706.025 39.166341 
L 1731.39375 39.166341 
L 1756.7625 39.166341 
" style="fill:none;stroke:#988ed5;stroke-linecap:square;stroke-width:2;"/>
   </g>
   <g id="patch_9">
    <path d="M 970.33125 512.6 
L 970.33125 10.7 
" style="fill:none;stroke:#ffffff;stroke-linecap:square;stroke-linejoin:miter;"/>
   </g>
   <g id="patch_10">
    <path d="M 1782.13125 512.6 
L 1782.13125 10.7 
" style="fill:none;stroke:#ffffff;stroke-linecap:square;stroke-linejoin:miter;"/>
   </g>
   <g id="patch_11">
    <path d="M 970.33125 512.6 
L 1782.13125 512.6 
" style="fill:none;stroke:#ffffff;stroke-linecap:square;stroke-linejoin:miter;"/>
   </g>
   <g id="patch_12">
    <path d="M 970.33125 10.7 
L 1782.13125 10.7 
" style="fill:none;stroke:#ffffff;stroke-linecap:square;stroke-linejoin:miter;"/>
   </g>
   <g id="legend_2">
    <g id="patch_13">
     <path d="M 984.33125 114.76875 
L 1080.89375 114.76875 
Q 1084.89375 114.76875 1084.89375 110.76875 
L 1084.89375 24.7 
Q 1084.89375 20.7 1080.89375 20.7 
L 984.33125 20.7 
Q 980.33125 20.7 980.33125 24.7 
L 980.33125 110.76875 
Q 980.33125 114.76875 984.33125 114.76875 
z
" style="fill:#e5e5e5;opacity:0.8;stroke:#cccccc;stroke-linejoin:miter;stroke-width:0.5;"/>
    </g>
    <g id="PathCollection_10">
     <g>
      <use style="fill:#ff0000;stroke:#ff0000;stroke-width:0.5;" x="1008.33125" xlink:href="#m6465e88835" y="38.646875"/>
     </g>
    </g>
    <g id="text_52">
     <!-- All -->
     <g transform="translate(1044.33125 43.896875)scale(0.2 -0.2)">
      <use xlink:href="#DejaVuSans-41"/>
      <use x="68.408203" xlink:href="#DejaVuSans-6c"/>
      <use x="96.191406" xlink:href="#DejaVuSans-6c"/>
     </g>
    </g>
    <g id="PathCollection_11">
     <g>
      <use style="fill:#1e90ff;stroke:#1e90ff;stroke-width:0.5;" x="1008.33125" xlink:href="#m9b54b5be35" y="68.003125"/>
     </g>
    </g>
    <g id="text_53">
     <!-- IC -->
     <g transform="translate(1044.33125 73.253125)scale(0.2 -0.2)">
      <use xlink:href="#DejaVuSans-49"/>
      <use x="29.492188" xlink:href="#DejaVuSans-43"/>
     </g>
    </g>
    <g id="PathCollection_12">
     <g>
      <use style="fill:#bc8f8f;stroke:#bc8f8f;stroke-width:0.5;" x="1008.33125" xlink:href="#mc43228d43c" y="97.359375"/>
     </g>
    </g>
    <g id="text_54">
     <!-- SIC -->
     <g transform="translate(1044.33125 102.609375)scale(0.2 -0.2)">
      <use xlink:href="#DejaVuSans-53"/>
      <use x="63.476562" xlink:href="#DejaVuSans-49"/>
      <use x="92.96875" xlink:href="#DejaVuSans-43"/>
     </g>
    </g>
   </g>
  </g>
 </g>
 <defs>
  <clipPath id="pbd75e156ca">
   <rect height="501.9" width="811.8" x="75.73125" y="10.7"/>
  </clipPath>
  <clipPath id="pc98ad4b4c6">
   <rect height="501.9" width="811.8" x="970.33125" y="10.7"/>
  </clipPath>
 </defs>
</svg>
